<?xml version="1.0" standalone="no"?>
<!DOCTYPE svg PUBLIC "-//W3C//DTD SVG 1.1//EN" "http://www.w3.org/Graphics/SVG/1.1/DTD/svg11.dtd" >
<svg>
<metadata>
Created by FontForge 20090622 at Fri Dec 11 04:52:25 2015
 By deploy user
</metadata>
<defs>
<font id="MHeiHKS-Medium-Roman" horiz-adv-x="1000" vert-adv-y="1000" >
  <font-face 
    font-family="MHeiHKS-Medium-Roman"
    font-weight="500"
    font-stretch="normal"
    units-per-em="1000"
    panose-1="2 0 6 3 0 0 0 0 0 0"
    ascent="800"
    descent="-200"
    bbox="-44 -210 982 895"
    underline-thickness="50"
    underline-position="-100"
  />
<missing-glyph 
 />
    <glyph glyph-name=".notdef" 
 />
    <glyph glyph-name=".null" horiz-adv-x="0" vert-adv-y="0" 
 />
    <glyph glyph-name="nonmarkingreturn" horiz-adv-x="333" 
 />
    <glyph glyph-name="CNS1.1" horiz-adv-x="278" 
 />
    <glyph glyph-name="CNS1.2" horiz-adv-x="278" 
d="M89 0v100h100v-100h-100zM111 178l-27 379v159h109v-159l-25 -379h-57z" />
    <glyph glyph-name="CNS1.3" horiz-adv-x="355" 
d="M71 462l-25 137v117h101v-117l-23 -137h-53zM232 462l-23 137v117h100v-117l-24 -137h-53z" />
    <glyph glyph-name="CNS1.4" horiz-adv-x="556" 
d="M52 -12l43 208h-83v72h97l37 178h-134v72h148l43 210h73l-42 -210h153l43 210h73l-42 -210h85v-72h-100l-36 -178h136v-72h-151l-42 -208h-74l43 208h-154l-42 -208h-74zM183 268h153l37 178h-154z" />
    <glyph glyph-name="CNS1.5" horiz-adv-x="556" 
d="M251 -14h-3q-93 0 -148 58t-62 155l88 16q8 -55 24 -86t47 -50q24 -15 54 -20v280h-3q-89 23 -134 59q-61 51 -61 142q0 87 53.5 143.5t141.5 56.5h3v42h52v-42l3 -1q79 -6 128 -51.5t60 -124.5l-91 -13q-15 100 -100 116v-254l3 -1q10 -3 44 -11q50 -14 85 -39
q76 -53 76 -157q0 -93 -56.5 -155.5t-148.5 -62.5h-3v-89h-52v89zM251 425v242q-51 -8 -80.5 -41t-29.5 -81q0 -46 24.5 -73t82.5 -46zM303 326v-267q55 9 86.5 46t31.5 93q0 102 -118 128z" />
    <glyph glyph-name="CNS1.6" horiz-adv-x="889" 
d="M60 537q0 88 40.5 139.5t110.5 51.5q71 0 113 -51t42 -139q0 -86 -42.5 -137.5t-112.5 -51.5q-68 0 -109.5 51.5t-41.5 136.5zM213 667q-76 0 -76 -132q0 -125 76 -125q77 0 77 132q0 125 -77 125zM523 161q0 88 40.5 139.5t110.5 51.5q71 0 113 -51t42 -138
q0 -86 -42.5 -138t-112.5 -52q-68 0 -109.5 51.5t-41.5 136.5zM676 292q-76 0 -76 -133q0 -125 76 -125q77 0 77 132q0 126 -77 126zM213 -27l392 755h71l-390 -755h-73z" />
    <glyph glyph-name="CNS1.7" horiz-adv-x="667" 
d="M644 53l-59 -70q-53 35 -110 101q-86 -96 -205 -96q-96 0 -161.5 60.5t-65.5 149.5q0 131 170 213q-44 52 -62 87t-18 70q0 67 52 113.5t126 46.5q71 0 118.5 -44t47.5 -109q0 -103 -135 -174l129 -164q20 42 34 100l91 -19q-24 -96 -64 -155q49 -64 112 -110zM420 154
l-161 200q-64 -38 -92.5 -74t-28.5 -77q0 -55 40 -96t93 -41q41 0 82.5 24.5t66.5 63.5zM258 503l39 -46q52 31 71 55.5t19 60.5t-23 59.5t-58 23.5t-59 -23t-24 -56q0 -32 35 -74z" />
    <glyph glyph-name="CNS1.8" horiz-adv-x="191" 
d="M146 596l-24 -134h-54l-23 134v120h101v-120z" />
    <glyph glyph-name="CNS1.9" horiz-adv-x="333" 
d="M297 -210h-63q-29 35 -57 84q-62 104 -89.5 195t-27.5 191q0 101 28.5 193t91.5 195q30 49 54 80h63l-6 -10q-61 -102 -82 -152.5t-40 -135.5q-18 -84 -18 -171q0 -177 83 -354q26 -56 63 -115z" />
    <glyph glyph-name="CNS1.10" horiz-adv-x="333" 
d="M99 -210h-63q37 59 63 115q83 177 83 354q0 190 -85 360q-23 46 -55 99l-6 10h63q24 -31 54 -80q63 -104 92 -196t28 -193q0 -99 -27.5 -190t-89.5 -195q-28 -49 -57 -84z" />
    <glyph glyph-name="CNS1.11" horiz-adv-x="389" 
d="M33 584l23 70q81 -30 112 -48l-1 11q-8 92 -8 111h70q-2 -69 -9 -110l-2 -11q49 24 115 47l23 -70q-60 -20 -122 -27q8 -7 9 -8q3 -3 7.5 -8l12 -13l13.5 -15l34 -38l8 -10l-58 -42q-21 28 -61 95l-6 10l-5 -9q-39 -71 -59 -96l-57 42l6 7l35 42q28 33 40 43
q-66 13 -120 27z" />
    <glyph glyph-name="CNS1.12" horiz-adv-x="584" 
d="M250 116v196h-194v82h194v195h84v-195h194v-82h-194v-196h-84z" />
    <glyph glyph-name="CNS1.13" horiz-adv-x="278" 
d="M87 0v100h100v-100q0 -56 -19 -89t-62 -52l-25 37q29 13 41.5 36.5t14.5 67.5h-50z" />
    <glyph glyph-name="CNS1.14" horiz-adv-x="333" 
d="M32 215v88h269v-88h-269z" />
    <glyph glyph-name="CNS1.15" horiz-adv-x="278" 
d="M89 0v100h100v-100h-100z" />
    <glyph glyph-name="CNS1.16" horiz-adv-x="278" 
d="M0 -12l207 740h71l-207 -740h-71z" />
    <glyph glyph-name="CNS1.17" horiz-adv-x="556" 
d="M44 355q0 364 233 364t233 -366q0 -365 -233 -365q-144 0 -200 139q-33 83 -33 228zM134 354q0 -132 26 -204q15 -42 46.5 -66t70.5 -24t70.5 24t46.5 66q26 70 26 203t-26 204q-15 41 -46.5 65t-71.5 24q-73 0 -107.5 -71t-34.5 -221z" />
    <glyph glyph-name="CNS1.18" horiz-adv-x="556" 
d="M287 0v560q-38 -37 -109 -75q-36 -19 -67 -31v85q71 33 126.5 81.5t80.5 98.5h57v-719h-88z" />
    <glyph glyph-name="CNS1.19" horiz-adv-x="556" 
d="M505 0h-476q6 50 24 86q39 78 145 165l33 27q99 81 140.5 137t41.5 107q0 54 -38 89t-97 35q-65 0 -102 -38.5t-38 -105.5l-90 10q9 100 68.5 153.5t163.5 53.5q100 0 162 -55t62 -144q0 -64 -41 -126t-135 -141l-72 -61q-75 -64 -103 -108h352v-84z" />
    <glyph glyph-name="CNS1.20" horiz-adv-x="556" 
d="M44 189l88 12q9 -42 19 -63q16 -37 48 -57.5t73 -20.5q62 0 104.5 43t42.5 107q0 60 -39.5 99t-100.5 39q-25 0 -62 -9l10 77q7 -1 14 -1q65 0 105.5 33.5t40.5 86.5q0 49 -33 80t-84 31q-53 0 -86.5 -33.5t-42.5 -95.5l-88 16q16 88 72.5 137t142.5 49q89 0 149 -53.5
t60 -132.5q0 -101 -98 -144v-2q39 -9 63 -26q71 -49 71 -149q0 -96 -69 -160t-172 -64q-94 0 -156.5 55t-71.5 146z" />
    <glyph glyph-name="CNS1.21" horiz-adv-x="556" 
d="M325 0v171h-310v81l326 464h72v-464h97v-81h-97v-171h-88zM325 252v323h-2l-222 -323h224z" />
    <glyph glyph-name="CNS1.22" horiz-adv-x="556" 
d="M44 188l92 7q10 -65 46 -100t92 -35q65 0 108 49.5t43 125.5q0 73 -42 117.5t-111 44.5q-88 0 -130 -69l-83 10l70 368h355v-84h-285l-39 -192q65 45 136 45q96 0 159 -66t63 -166q0 -111 -69 -183t-175 -72q-98 0 -160 54t-70 146z" />
    <glyph glyph-name="CNS1.23" horiz-adv-x="556" 
d="M500 541l-88 -8q-15 113 -116 113q-100 0 -139 -98q-30 -77 -30 -165v-14h2q16 29 40 49q59 46 132 46q91 0 151 -66t60 -165q0 -107 -63 -176t-161 -69q-68 0 -125 34.5t-85 93.5q-38 79 -38 219q0 188 65 286t191 98q85 0 139 -47t65 -131zM141 233q0 -73 41.5 -123
t103.5 -50q59 0 97.5 47t38.5 120q0 71 -38.5 115.5t-100.5 44.5q-61 0 -101.5 -44t-40.5 -110z" />
    <glyph glyph-name="CNS1.24" horiz-adv-x="556" 
d="M240 0h-90q3 156 81 345q43 105 111 202q27 39 58 75h-350v84h463v-68q-133 -134 -203 -323q-62 -169 -70 -315z" />
    <glyph glyph-name="CNS1.25" horiz-adv-x="556" 
d="M179 388v-1v2q-38 13 -55 28q-53 42 -53 117q0 81 58 133t148 52q91 0 149.5 -53t58.5 -134q0 -104 -105 -143v-2q41 -12 67 -32q67 -53 67 -150q0 -94 -66.5 -155.5t-168.5 -61.5q-103 0 -169.5 61.5t-66.5 157.5t66 149q26 21 70 32zM162 534q0 -48 33 -80t84 -32
q50 0 83 31.5t33 78.5q0 49 -33.5 81.5t-83.5 32.5t-83 -32t-33 -80zM133 206q0 -63 41.5 -104.5t105.5 -41.5q63 0 103.5 40.5t40.5 103.5t-41.5 104.5t-105.5 41.5q-62 0 -103 -41t-41 -103z" />
    <glyph glyph-name="CNS1.26" horiz-adv-x="556" 
d="M57 166l84 7q21 -113 119 -113q41 0 74 20.5t52 57.5q41 80 41 181v18h-2q-26 -43 -72 -68.5t-97 -25.5q-92 0 -152 66t-60 168q0 106 63 174t162 68q112 0 179 -86q35 -44 50.5 -104.5t15.5 -155.5q0 -176 -54 -270q-66 -115 -202 -115q-86 0 -138.5 46.5t-62.5 131.5z
M134 480q0 -71 38.5 -115.5t101.5 -44.5q62 0 102.5 43.5t40.5 110.5q0 73 -42 122.5t-104 49.5q-60 0 -98.5 -47t-38.5 -119z" />
    <glyph glyph-name="CNS1.27" horiz-adv-x="278" 
d="M89 0v100h100v-100h-100zM89 418v100h100v-100h-100z" />
    <glyph glyph-name="CNS1.28" horiz-adv-x="278" 
d="M87 0v100h100v-100q0 -56 -19 -89t-62 -52l-25 37q29 13 41.5 36.5t14.5 67.5h-50zM87 418v100h100v-100h-100z" />
    <glyph glyph-name="CNS1.29" horiz-adv-x="584" 
d="M55 313v82l474 200v-87l-376 -154l376 -156v-87z" />
    <glyph glyph-name="CNS1.30" horiz-adv-x="584" 
d="M528 204h-472v81h472v-81zM528 421h-472v82h472v-82z" />
    <glyph glyph-name="CNS1.31" horiz-adv-x="584" 
d="M529 313l-474 -202v87l376 156l-376 154v87l474 -200v-82z" />
    <glyph glyph-name="CNS1.32" horiz-adv-x="556" 
d="M317 176h-84q-1 12 -1 27q0 69 27 114q21 37 87 94q42 38 57 61.5t15 54.5q0 53 -41 91t-98 38q-120 0 -143 -145l-90 10q13 100 72.5 153.5t159.5 53.5t165 -55t65 -140q0 -79 -69 -147l-39 -36q-45 -39 -59.5 -60t-19.5 -53q-3 -19 -4 -61zM227 0v100h100v-100h-100z
" />
    <glyph glyph-name="CNS1.33" horiz-adv-x="1015" 
d="M893 9h89q-32 -65 -107 -121q-128 -98 -324 -98q-231 0 -362.5 117t-131.5 322q0 133 59.5 250t159.5 180q110 70 265 70q181 0 299 -107.5t118 -273.5q0 -135 -90.5 -242.5t-203.5 -107.5q-48 0 -69 18t-25 64q-70 -81 -150 -81q-75 0 -126 63t-51 156q0 119 78 215
t175 96q93 0 148 -90l16 76h88l-71 -328l-7 -34q-7 -31 -7 -41q0 -14 10 -23.5t24 -9.5q39 0 94 51q44 42 69 100t25 120q0 132 -99.5 220t-249.5 88q-176 0 -291.5 -119.5t-115.5 -301.5q0 -178 111 -276.5t310 -98.5q153 0 257 67q34 21 50 36t36 44zM333 210
q0 -60 30 -99.5t75 -39.5q68 0 123 76t55 170q0 63 -31 101.5t-82 38.5q-66 0 -118 -75.5t-52 -171.5z" />
    <glyph glyph-name="CNS1.34" horiz-adv-x="667" 
d="M-1 0l275 716h102l292 -716h-107l-84 217h-299l-79 -217h-100zM205 294h243l-75 198q-33 87 -49 149h-2q-13 -69 -38 -137z" />
    <glyph glyph-name="CNS1.35" horiz-adv-x="667" 
d="M73 -1l1 717h268q75 0 121.5 -17.5t78.5 -57.5q37 -48 37 -108q0 -103 -99 -152q65 -20 99.5 -65t34.5 -110q0 -60 -31 -109.5t-82 -71.5q-60 -26 -155 -26h-273zM168 84h178q48 0 66.5 3t42.5 15q28 13 44.5 41.5t16.5 63.5q0 37 -18 66t-50 42q-39 16 -114 16h-166
v-247zM168 415h155q48 0 67.5 2.5t40.5 12.5q55 24 55 91q0 37 -17.5 64t-46.5 36q-36 10 -111 10h-143v-216z" />
    <glyph glyph-name="CNS1.36" horiz-adv-x="722" 
d="M589 251l95 -24q-30 -116 -106.5 -177.5t-189.5 -61.5q-216 0 -294 173q-43 95 -43 202q0 166 92 265.5t246 99.5q107 0 180.5 -54t102.5 -155l-93 -22q-26 77 -72 113.5t-120 36.5q-112 0 -175 -74.5t-63 -208.5q0 -140 60.5 -217.5t170.5 -77.5q83 0 136.5 46.5
t72.5 135.5z" />
    <glyph glyph-name="CNS1.37" horiz-adv-x="722" 
d="M79 -1v717h246q75 0 108 -5t73 -23q43 -19 78 -59q86 -101 86 -266q0 -116 -40 -202t-113 -125q-71 -37 -180 -37h-258zM173 84h153q97 0 144 27q103 61 103 253q0 120 -49 191q-23 34 -61 54q-26 14 -53 18t-86 4h-151v-547z" />
    <glyph glyph-name="CNS1.38" horiz-adv-x="667" 
d="M79 0v716h518v-85h-423v-219h396v-84h-396v-244h440v-84h-535z" />
    <glyph glyph-name="CNS1.39" horiz-adv-x="611" 
d="M80 0v716h483v-85h-388v-222h336v-84h-336v-325h-95z" />
    <glyph glyph-name="CNS1.40" horiz-adv-x="778" 
d="M714 365v-265q-140 -112 -297 -112q-165 0 -265 100.5t-100 266.5q0 110 45.5 198.5t123.5 130.5q82 44 189 44q93 0 161.5 -34t102.5 -98q17 -34 29 -80l-86 -24q-12 44 -24 64q-25 43 -72.5 67t-109.5 24q-123 0 -192.5 -76t-69.5 -210q0 -136 69.5 -212t194.5 -76
q73 0 155 41q38 20 53 33v134h-210v84h303z" />
    <glyph glyph-name="CNS1.41" horiz-adv-x="722" 
d="M80 0v716h95v-294h372v294h95v-716h-95v337h-372v-337h-95z" />
    <glyph glyph-name="CNS1.42" horiz-adv-x="278" 
d="M92 0v716h95v-716h-95z" />
    <glyph glyph-name="CNS1.43" horiz-adv-x="500" 
d="M27 203l85 12q3 -70 24 -103q26 -40 83 -40q33 0 58 14.5t36 39.5q13 31 13 97v493h94v-488q0 -90 -22 -141q-21 -47 -68 -73t-111 -26q-164 0 -189 159q-3 24 -3 46v10z" />
    <glyph glyph-name="CNS1.44" horiz-adv-x="667" 
d="M74 0v716h94v-355l356 355h128l-300 -290l313 -426h-125l-254 362l-118 -114v-248h-94z" />
    <glyph glyph-name="CNS1.45" horiz-adv-x="556" 
d="M75 0v716h95v-632h353v-84h-448z" />
    <glyph glyph-name="CNS1.46" horiz-adv-x="833" 
d="M74 0v716h139l173 -513q28 -87 33 -106h2q9 32 38 115l175 504h123v-716h-96l14 566l1 43l1 16l-2 2l-5 -22l-24 -67l-188 -538h-85l-213 627l-2 -2l1 -17l1 -80l11 -528h-97z" />
    <glyph glyph-name="CNS1.47" horiz-adv-x="722" 
d="M78 0v716h97l310 -464q59 -88 83 -141l2 2q-15 81 -15 172l-4 431h91v-716h-97l-360 537q-14 19 -28 50l-2 -2l1 -15q5 -77 5 -81l8 -489h-91z" />
    <glyph glyph-name="CNS1.48" horiz-adv-x="778" 
d="M47 356q0 167 94 269.5t248 102.5q153 0 248 -102.5t95 -268.5q0 -164 -95.5 -266.5t-247.5 -102.5q-151 0 -246.5 102.5t-95.5 265.5zM145 356q0 -131 66 -209t178 -78t178.5 78t66.5 210t-66.5 211t-176.5 79q-115 0 -180.5 -77.5t-65.5 -213.5z" />
    <glyph glyph-name="CNS1.49" horiz-adv-x="667" 
d="M77 0v716h270q65 0 93.5 -3.5t62.5 -15.5q55 -19 87.5 -70.5t32.5 -119.5q0 -64 -30 -115t-82 -74q-58 -27 -156 -27h-183v-291h-95zM172 375h185q68 0 108 20q61 31 61 110q0 35 -15 64q-19 38 -49 50t-107 12h-183v-256z" />
    <glyph glyph-name="CNS1.50" horiz-adv-x="778" 
d="M564 28l-6 4q-49 -28 -82 -36t-93 -8q-151 0 -246 103t-95 267q0 165 94.5 267.5t247.5 102.5q152 0 247 -102t95 -267q0 -179 -108 -282q63 -44 122 -67l-28 -66q-46 17 -148 84zM387 129l23 69q80 -22 135 -69q83 77 83 230q0 131 -66 209.5t-177 78.5
q-114 0 -180 -77.5t-66 -211.5q0 -133 66.5 -211t179.5 -78q51 0 96 19q-46 30 -94 41z" />
    <glyph glyph-name="CNS1.51" horiz-adv-x="722" 
d="M80 0v716h317q95 0 144 -19q50 -19 81 -67t31 -109q0 -82 -51.5 -131.5t-150.5 -62.5v-2q40 -18 62 -40q39 -36 73 -90l125 -195h-119l-95 149q-44 69 -73 105q-26 32 -53 47q-19 11 -33.5 14t-52.5 3h-110v-318h-95zM175 400h204q74 0 114 18q28 14 45 41.5t17 60.5
q0 30 -15 57t-40 40q-37 20 -99 20h-226v-237z" />
    <glyph glyph-name="CNS1.52" horiz-adv-x="667" 
d="M45 230l90 8q5 -47 19 -73q23 -43 74.5 -67.5t117.5 -24.5q80 0 128.5 33.5t48.5 88.5q0 60 -54 87q-39 21 -162 50q-71 17 -105 30t-63 35q-66 49 -66 134q0 88 69 142.5t182 54.5q122 0 193.5 -57t75.5 -157l-91 -7q-7 70 -49.5 103.5t-124.5 33.5q-77 0 -120.5 -28.5
t-43.5 -78.5q0 -45 34.5 -68.5t135.5 -45.5q84 -19 120.5 -31t69.5 -31q91 -53 91 -159q0 -94 -74.5 -154t-190.5 -60q-142 0 -222 63.5t-83 178.5z" />
    <glyph glyph-name="CNS1.53" horiz-adv-x="611" 
d="M257 0v631h-235v85h567v-85h-237v-631h-95z" />
    <glyph glyph-name="CNS1.54" horiz-adv-x="722" 
d="M548 716h95v-414q0 -72 -6.5 -111.5t-25.5 -76.5q-31 -61 -94 -93.5t-151 -32.5q-197 0 -255 126q-18 40 -24.5 79t-6.5 109v414h95v-413q0 -94 19 -142q17 -41 60 -64.5t103 -23.5q139 0 173 88q18 46 18 142v413z" />
    <glyph glyph-name="CNS1.55" horiz-adv-x="667" 
d="M282 0l-277 716h102l186 -520l15 -39q12 -30 17 -56l5 -22h2q17 62 37 117l194 520h96l-280 -716h-97z" />
    <glyph glyph-name="CNS1.56" horiz-adv-x="944" 
d="M201 0l-191 716h97l110 -470q24 -100 27 -128l2 -18h2l4 22l14 62l13 49l136 483h115l102 -362q40 -141 55 -254h2q10 60 34 156l113 460h95l-197 -716h-91l-151 545l-15 53l-6 32h-2q-8 -40 -20 -85l-152 -545h-96z" />
    <glyph glyph-name="CNS1.57" horiz-adv-x="667" 
d="M5 0l277 373l-245 343h113l130 -184q39 -55 57 -88l4.5 6.5t4 6t2.5 3.5q3 7 19 28l13 18.5l9.5 13.5t4.5 6l144 190h103l-251 -337l271 -379h-117l-180 255q-16 22 -32 48l-5 -9l-29 -45l-179 -249h-114z" />
    <glyph glyph-name="CNS1.58" horiz-adv-x="667" 
d="M279 0v303l-276 413h115l141 -216q50 -76 66 -107l7 -14q27 48 78 126l139 211h110l-285 -413v-303h-95z" />
    <glyph glyph-name="CNS1.59" horiz-adv-x="611" 
d="M18 0v88l367 458q44 55 74 85h-399v85h512v-85l-401 -496q-1 -1 -4.5 -5l-11.5 -13.5l-16 -18.5q-2 -2 -12 -14h457v-84h-566z" />
    <glyph glyph-name="CNS1.60" horiz-adv-x="278" 
d="M66 -199v915h194v-73h-106v-769h106v-73h-194z" />
    <glyph glyph-name="CNS1.61" horiz-adv-x="278" 
d="M207 -12l-207 740h71l207 -740h-71z" />
    <glyph glyph-name="CNS1.62" horiz-adv-x="278" 
d="M212 -199h-194v73h106v769h-106v73h194v-915z" />
    <glyph glyph-name="CNS1.63" horiz-adv-x="469" 
d="M116 337h-90l173 391h71l173 -391h-89l-120 292z" />
    <glyph glyph-name="CNS1.64" horiz-adv-x="556" 
d="M-13 -199v64h582v-64h-582z" />
    <glyph glyph-name="CNS1.65" horiz-adv-x="333" 
d="M227 583h-71l-113 137h118z" />
    <glyph glyph-name="CNS1.66" horiz-adv-x="556" 
d="M516 0h-92q-14 28 -18 64q-89 -76 -191 -76q-81 0 -129 40.5t-48 108.5q0 53 32.5 92.5t91.5 55.5q32 9 80 14q103 12 157 30v23q0 56 -29.5 81t-95.5 25q-62 0 -91.5 -21.5t-43.5 -77.5l-86 11q10 44 23 67q54 93 210 93q157 0 189 -87q13 -33 13 -108v-118
q0 -129 7 -164q6 -26 21 -53zM399 228v32q-47 -19 -144 -33q-69 -10 -96 -29t-27 -59q0 -38 28 -60t77 -22q78 0 124 49q22 22 30 48.5t8 73.5z" />
    <glyph glyph-name="CNS1.67" horiz-adv-x="556" 
d="M149 0h-82v716h88v-256h2q53 70 140 70q99 0 159.5 -72.5t60.5 -190.5q0 -124 -62 -201.5t-162 -77.5q-93 0 -142 77h-2v-65zM148 263v-14q0 -87 37 -137.5t101 -50.5t102.5 54t38.5 145q0 92 -37 145t-101 53t-102.5 -52t-38.5 -143z" />
    <glyph glyph-name="CNS1.68" horiz-adv-x="500" 
d="M404 190l87 -11q-14 -89 -71.5 -140t-144.5 -51q-110 0 -173 72t-63 198q0 127 63 199.5t174 72.5q56 0 102 -21.5t72 -59.5q22 -31 32 -83l-85 -13q-24 105 -118 105q-72 0 -111 -51.5t-39 -146.5q0 -96 37.5 -147.5t107.5 -51.5q38 0 68.5 18.5t45.5 49.5q12 26 16 61z
" />
    <glyph glyph-name="CNS1.69" horiz-adv-x="556" 
d="M404 0v66h-2q-46 -78 -143 -78q-98 0 -160.5 76.5t-62.5 194.5q0 124 60 197.5t160 73.5q92 0 140 -71h2v257h88v-716h-82zM126 258q0 -90 38.5 -143.5t103.5 -53.5q64 0 101 51t37 139q0 97 -37.5 152t-104.5 55q-65 0 -101.5 -53t-36.5 -147z" />
    <glyph glyph-name="CNS1.70" horiz-adv-x="556" 
d="M423 167l90 -11q-22 -82 -80 -125t-147 -43q-116 0 -182 71t-66 196q0 126 65.5 200.5t177.5 74.5q108 0 172 -73t64 -197q0 -2 -0.5 -9.5t-0.5 -13.5h-387q4 -82 46.5 -129t110.5 -47q99 0 137 106zM134 309h290q-4 42 -14 66q-15 37 -50.5 60t-78.5 23
q-61 0 -101.5 -41.5t-45.5 -107.5z" />
    <glyph glyph-name="CNS1.71" horiz-adv-x="278" 
d="M85 0v450h-77v68h77v56q0 63 17 94q34 60 127 60q34 0 82 -9l-13 -77q-25 5 -52 5q-42 0 -57.5 -17t-15.5 -63v-49h101v-68h-101v-450h-88z" />
    <glyph glyph-name="CNS1.72" horiz-adv-x="556" 
d="M52 -43l85 -13q12 -82 119 -82q92 0 124 55q13 23 17.5 48t4.5 77v26q-58 -68 -144 -68q-99 0 -161.5 73t-62.5 189q0 121 61.5 194.5t163.5 73.5q93 0 149 -74h2v62h81v-448q0 -88 -13 -137.5t-45 -80.5q-65 -62 -176 -62q-95 0 -150.5 42t-55.5 114q0 7 1 11zM124 263
q0 -89 38 -139.5t105 -50.5q42 0 75 24q35 25 51 64.5t16 104.5q0 88 -39 140t-105 52q-65 0 -103 -52.5t-38 -142.5z" />
    <glyph glyph-name="CNS1.73" horiz-adv-x="556" 
d="M68 0v716h87v-257q62 71 157 71q51 0 93 -19.5t61 -53.5q24 -41 24 -129v-328h-88v328q0 61 -21 88q-30 38 -89 38q-35 0 -67 -17t-48 -45q-22 -37 -22 -108v-284h-87z" />
    <glyph glyph-name="CNS1.74" horiz-adv-x="222" 
d="M68 0v518h88v-518h-88zM68 615v101h88v-101h-88z" />
    <glyph glyph-name="CNS1.75" horiz-adv-x="222" 
d="M-44 -201l17 75q22 -7 41 -7q26 0 37.5 15t13.5 50l2 42v544h88v-546q0 -78 -15 -115.5t-52 -54.5q-27 -12 -63 -12t-69 9zM67 614v102h88v-102h-88z" />
    <glyph glyph-name="CNS1.76" horiz-adv-x="500" 
d="M66 0v716h88v-408l208 210h114l-198 -192l218 -326h-108l-172 265l-62 -59v-206h-88z" />
    <glyph glyph-name="CNS1.77" horiz-adv-x="222" 
d="M66 0v716h87v-716h-87z" />
    <glyph glyph-name="CNS1.78" horiz-adv-x="833" 
d="M66 0v518h78v-72h2q53 84 155 84q115 0 147 -91q61 91 161 91q47 0 84.5 -19.5t55.5 -53.5q19 -38 19 -101v-356h-87v327q0 69 -21.5 98t-71.5 29q-69 0 -104 -54q-23 -34 -23 -99v-301h-87v337q0 61 -22.5 89t-70.5 28q-34 0 -63 -16.5t-43 -43.5q-22 -43 -22 -125v-269
h-87z" />
    <glyph glyph-name="CNS1.79" horiz-adv-x="556" 
d="M68 0v518h79v-73h2q55 85 164 85q52 0 93.5 -20.5t60.5 -55.5q15 -27 19 -50.5t4 -84.5v-319h-88v315q0 42 -4 61t-16 37q-27 41 -89 41q-38 0 -71 -18t-48 -47q-18 -36 -18 -106v-283h-88z" />
    <glyph glyph-name="CNS1.80" horiz-adv-x="556" 
d="M35 259q0 167 108 234q62 37 135 37q111 0 177 -71.5t66 -191.5q0 -91 -26 -148.5t-82 -92.5q-62 -38 -135 -38q-79 0 -141 41.5t-84 109.5q-18 55 -18 120zM125 259q0 -92 41 -145t112 -53q72 0 112.5 53t40.5 148q0 90 -41.5 143t-111.5 53q-71 0 -112 -53t-41 -146z
" />
    <glyph glyph-name="CNS1.81" horiz-adv-x="556" 
d="M68 -199v717h80v-67h2q53 79 148 79q100 0 160 -73t60 -194t-63 -198t-163 -77q-85 0 -134 66h-2v-253h-88zM147 250q0 -87 37.5 -138t101.5 -51q66 0 104 54.5t38 148.5q0 91 -37 144t-101 53q-65 0 -104 -58t-39 -153z" />
    <glyph glyph-name="CNS1.82" horiz-adv-x="556" 
d="M399 -199v254h-2q-21 -31 -57.5 -49t-77.5 -18q-99 0 -162 77.5t-63 198.5t60 193.5t159 72.5q97 0 149 -81h2v69h79v-717h-87zM127 258q0 -90 39 -143.5t104 -53.5q63 0 100 51.5t37 139.5q0 94 -39 151.5t-104 57.5q-64 0 -100.5 -54t-36.5 -149z" />
    <glyph glyph-name="CNS1.83" horiz-adv-x="333" 
d="M65 0v518h79v-78h2q26 51 50.5 70.5t59.5 19.5q44 0 90 -28l-30 -81q-32 19 -65 19q-48 0 -73.5 -43.5t-25.5 -124.5v-272h-87z" />
    <glyph glyph-name="CNS1.84" horiz-adv-x="500" 
d="M31 155l87 13q15 -108 134 -108q54 0 86.5 22.5t32.5 60.5q0 27 -19 42.5t-68 27.5l-58 14q-78 19 -119 43q-28 16 -45 46t-17 65q0 67 52.5 108t138.5 41q146 0 189 -86q11 -22 17 -59l-86 -12q-12 85 -114 85q-53 0 -82.5 -18t-29.5 -49q0 -29 20.5 -42t101.5 -34
q89 -24 129 -41q81 -34 81 -122q0 -72 -58.5 -118t-150.5 -46q-99 0 -153 40.5t-69 126.5z" />
    <glyph glyph-name="CNS1.85" horiz-adv-x="278" 
d="M256 79l13 -78q-37 -8 -67 -8q-90 0 -112 57q-10 27 -10 102v298h-64v68h64v129l88 53v-182h88v-68h-88v-303q0 -44 9.5 -58t40.5 -14q15 0 38 4z" />
    <glyph glyph-name="CNS1.86" horiz-adv-x="556" 
d="M408 0v76h-2q-58 -88 -164 -88q-50 0 -91.5 21t-60.5 55q-16 28 -20 51t-4 82v321h88v-287q0 -78 8 -103q9 -29 36 -46.5t64 -17.5q38 0 71.5 19t47.5 50q18 37 18 108v277h87v-518h-78z" />
    <glyph glyph-name="CNS1.87" horiz-adv-x="500" 
d="M210 0l-197 518h93l111 -310q19 -52 32 -105h2q9 37 32 99l115 316h90l-196 -518h-82z" />
    <glyph glyph-name="CNS1.88" horiz-adv-x="722" 
d="M163 0l-158 518h91l82 -299l8 -31l15 -53l7 -27h2l5 27l11 40l10 40l82 303h91l77 -300q6 -25 10 -37q7 -27 15 -62h2q5 21 16 58q1 3 13 42l89 299h85l-162 -518h-91l-83 311l-17 76l-2 12h-2l-104 -399h-92z" />
    <glyph glyph-name="CNS1.89" horiz-adv-x="500" 
d="M7 0l190 270l-175 248h109l80 -121q25 -39 36 -58q13 20 40 57l87 122h105l-179 -243l193 -275h-108l-106 161l-18 27l-11 17l-136 -205h-107z" />
    <glyph glyph-name="CNS1.90" horiz-adv-x="500" 
d="M62 -200l-9 83q29 -8 50 -8q42 0 60.5 18.5t41.5 84.5q4 8 8 21l-197 519h95l108 -300q23 -63 37 -120h2q12 58 35 119l110 301h89l-198 -527l-18 -49q-30 -82 -66.5 -117t-90.5 -35q-27 0 -57 10z" />
    <glyph glyph-name="CNS1.91" horiz-adv-x="500" 
d="M20 0v71l330 379q-66 -3 -99 -3h-212v71h424v-57l-281 -329q-4 -6 -43 -48q-1 -1 -2.5 -3t-4 -5t-4.5 -5q7 1 16 1t18 1t14 1.5t6 0.5h13h44h240v-75h-459z" />
    <glyph glyph-name="CNS1.92" horiz-adv-x="334" 
d="M28 219v80q30 0 47 10q33 18 43.5 53t10.5 126q1 100 6.5 134t27.5 62q19 25 45 34.5t76 9.5h27v-76h-15q-52 0 -68 -19t-16 -82v-72q0 -144 -53 -190q-18 -16 -49 -30q57 -24 79.5 -72.5t22.5 -148.5v-71q0 -63 16 -82t68 -19h15v-76h-27q-50 0 -76.5 9.5t-44.5 34.5
q-22 28 -27.5 62t-6.5 134q0 91 -10.5 125.5t-43.5 52.5q-19 11 -47 11z" />
    <glyph glyph-name="CNS1.93" horiz-adv-x="260" 
d="M92 -210v938h76v-938h-76z" />
    <glyph glyph-name="CNS1.94" horiz-adv-x="334" 
d="M306 299v-80q-28 0 -47 -11q-33 -18 -43.5 -52.5t-10.5 -125.5q-1 -99 -7 -133.5t-27 -62.5q-19 -25 -45 -34.5t-76 -9.5h-27v76h15q52 0 68 19.5t16 81.5v71q0 100 22.5 148.5t79.5 72.5q-63 30 -82 78q-20 53 -20 142v72q0 63 -16 82t-68 19h-15v76h27q50 0 76.5 -9.5
t44.5 -34.5q22 -28 27.5 -62t6.5 -134q0 -91 10.5 -126t43.5 -53q17 -10 47 -10z" />
    <glyph glyph-name="CNS1.95" horiz-adv-x="584" 
d="M43 272v100q51 59 135 59q56 0 134 -34l39 -17q35 -15 65 -15q64 0 126 67v-103q-60 -56 -135 -56q-51 0 -119 30l-30 13q-50 22 -88 22q-33 0 -60.5 -14t-66.5 -52z" />
    <glyph glyph-name="CNS1.96" horiz-adv-x="737" 
d="M737 360q0 -153 -108 -261t-260 -108q-153 0 -261 108t-108 261q0 152 108 260t261 108q152 0 260 -108t108 -260zM676 360q0 127 -90 217t-217 90t-217.5 -90t-90.5 -217q0 -128 90.5 -218t217.5 -90t217 90.5t90 217.5zM547 282q-15 -62 -62.5 -98t-115.5 -36
q-88 0 -140.5 57.5t-52.5 153.5t53 151.5t144 55.5q64 0 107 -30t59 -85l-58 -14q-30 75 -110 75q-59 0 -94 -42.5t-35 -112.5t33 -110.5t91 -40.5q45 0 77.5 25t43.5 69z" />
    <glyph glyph-name="CNS1.100" 
d="M449 362v100h100v-100q0 -19 -1.5 -32.5t-8.5 -36.5t-25 -41.5t-47 -30.5l-24 37q32 14 43 40t12 64h-49z" />
    <glyph glyph-name="CNS1.537" 
d="M580 229q-48 68 -133.5 156.5t-152.5 133.5l58 54q62 -39 155 -132t137 -158z" />
    <glyph glyph-name="CNS1.554" 
d="M104 -6v58h639v290h-525v58h525v301h-570v58h630v-707h143v-58h-842z" />
    <glyph glyph-name="CNS1.558" 
d="M560 696q-44 45 -116 83l31 42q71 -26 128 -87zM282 611v-271q0 -118 -47 -225q-42 -96 -131 -175l-46 48q154 124 162 325l-134 -73l-44 53q88 36 178 87v288h678v-57h-616zM137 433q-24 77 -67 147l46 31q54 -71 73 -152z" />
    <glyph glyph-name="CNS1.560" 
d="M233 662l-62 66q330 -8 563 97l56 -57q-243 -95 -557 -106zM250 513l-63 67q253 -3 552 101l55 -45q-220 -88 -544 -123zM928 -12l-362 -2q-151 -1 -305 132q-15 -54 -55.5 -104t-94.5 -86l-58 41q43 25 65.5 41.5t47.5 45t36.5 64.5t19.5 92t9 136h60q-1 -93 -15 -166
q106 -95 192 -117v344q-159 -27 -298 -35l-44 58q158 2 340 35.5t303 86.5l51 -56q-106 -41 -289 -78v-125h288v-59l-288 1v-184q97 -12 222 -9q28 1 97 4t106 4z" />
    <glyph glyph-name="CNS1.562" 
d="M748 18h-164v731h58v-672h106v-59zM820 78h109v-60h-166v731h57v-671zM308 18h-58l-94 434l-2 -434h-59v731h61l91 -429l2 429h59v-731zM545 749v-632q0 -32 -18 -56.5t-45 -34.5q-25 -9 -51.5 -4.5t-45.5 20.5q-34 29 -34 82v625h59v-615q6 -48 31 -54q13 -1 24 5
q5 4 8.5 8.5t5.5 8.5t4 10.5t2.5 10t1 11.5t0.5 11v12v11v581h58z" />
    <glyph glyph-name="CNS1.13649" horiz-adv-x="500" 
d="M294 596l-21 -379h-45l-21 379v160h87v-160zM289 37h-79v101h79v-101z" />
    <glyph glyph-name="CNS1.13754" 
d="M516 185q104 -78 149 -123l-50 -53q-155 130 -325 242l45 54q77 -47 123 -80q105 118 211 294h-359q-39 -65 -111 -161l-58 42q49 64 117 172q45 73 109 204l66 -27q-33 -74 -88 -166h388l45 -29q-125 -206 -262 -369z" />
    <glyph glyph-name="CNS1.14124" 
 />
    <glyph glyph-name="CNS1.14125" 
 />
    <glyph glyph-name="CNS1.14126" 
d="M927 468q-40 14 -89 47q-13 9 -86 66v-44h-217v46q-81 -72 -161 -115l-45 45q96 39 175 129t128 195l54 -24q-2 -12 -10 -27q94 -147 174 -203q53 -38 116 -63zM730 238l-52 32q57 61 81 127h-306v63h382q-4 -62 -33 -121.5t-72 -100.5zM910 8q-55 104 -140 153l51 34
q72 -37 140 -148zM682 127q-44 77 -120 124l41 38q63 -31 124 -120zM718 -26h-141q-24 0 -47 20.5t-23 46.5v171h60v-151q-2 -15 6 -22.5t25 -7.5l109 -1q24 2 36 37q1 4 12 52l58 -20q-9 -50 -33.5 -87.5t-61.5 -37.5zM262 492q-1 -123 -2 -135q0 -30 -3 -94
q69 -50 103 -93l-42 -48q-41 54 -73 81q-32 -139 -153 -261l-44 44q60 50 97 126.5t47 136t10 120.5v460h60v-268q36 36 71 92q1 -1 9.5 -8l13.5 -11l25 -22q-75 -90 -119 -120zM93 366l-54 25q54 117 50 252l55 -19q0 -155 -51 -258zM355 2l-49 44q85 65 127 157l50 -28
q-36 -92 -128 -173zM647 731q-58 -92 -103 -136l200 -1q-58 64 -97 137z" />
    <glyph glyph-name="CNS1.14129" 
 />
    <glyph glyph-name="CNS1.14130" 
 />
    <glyph glyph-name="CNS1.14131" 
d="M922 542q-62 -49 -149 -65l-20 26.5t-17 23.5q91 13 153 58zM935 397l-32 -51q-79 59 -164 65l29 49q81 -8 167 -63zM723 392h-62v194l62 1v-195zM635 523l-30 -50q-52 51 -154 60l29 49q36 -6 55 -10t46.5 -16.5t53.5 -32.5zM632 406l-154 -52l-39 50q30 6 60.5 15
t73 23.5t59.5 19.5v-17.5v-21v-17.5zM904 605l-477 1l1 -221q1 -87 -0.5 -131.5t-14.5 -112.5t-40 -115q-34 -63 -62 -96l-5 1l-47 41q94 114 102 223l5 76l-3 521h541v-187zM948 76l-225 -1v-144l-62 -1v145h-233v59h232v90h-114q-23 -54 -50 -84l-56 32q68 65 74 169
q-2 1 -0.5 3.5t1.5 3.5l52 -19q1 -10 0.5 -15t-2.5 -15.5l-3 -15.5h99v88l62 -1l1 -88l180 1v-59l-181 -1v-88h225v-59zM354 307q-9 -7 -27.5 -18t-26.5 -17q-20 82 -68 134v-477h-62v395q-5 -10 -12.5 -31.5t-11.5 -30.5q-33 -78 -74 -135l-53 42q109 138 144 347h-115v60
h120v142q-91 -15 -96 -15q-17 19 -42 56q158 13 265 72l41 -44q-39 -28 -105 -49l-1 -162h108v-60h-106v-80l30 21q68 -77 92 -150zM842 664v68l-415 1l1 -68z" />
    <glyph glyph-name="CNS1.14133" 
 />
    <glyph glyph-name="CNS1.14134" 
 />
    <glyph glyph-name="CNS1.14135" 
 />
    <glyph glyph-name="CNS1.14136" 
d="M868 543l-36 -49q-135 120 -292 155l37 42q57 -11 147.5 -55t143.5 -93zM896 613h-62v91h-681v-91h-62v150l377 -1q-25 30 -66 49l55 38q37 -21 84 -87h355v-149zM453 653l-100.5 -71.5t-91.5 -50.5t-114 -38l-41 49q24 5 46.5 11l40 11t37 13.5l31 13.5t29.5 16
t25.5 14.5t25.5 17l22 16.5l23.5 18t22.5 17zM846 -71h-62v58h-580v-58h-62v539h217q64 78 79 148l59 -29q-17 -57 -67 -119h416v-539zM784 45v365h-580v-365h580zM753 126l-46 -45q-66 43 -148 70q-129 -73 -290 -87l-44 58q149 7 256 50v2q-52 9 -112 6l39 51
q41 -2 142 -21q45 27 88 71h-204q-61 -54 -150 -89l-46 42q152 54 222 163l45 -30l-21 -32h234v-50q-38 -47 -100 -94q110 -49 135 -65z" />
    <glyph glyph-name="CNS1.14138" 
d="M871 535l-43 -48q-41 47 -114 83t-147 50l39 44q62 -10 140 -45t125 -84zM910 579h-64v97h-692v-101h-64v162h425q-39 42 -118 68l45 47q80 -26 132 -81l-33 -34h369v-158zM942 208h-410v-167h256v136h64v-248h-64v51l-638 -1l-2 198h65v-136h255v167h-410v62h102l-51 35
q56 29 97 87t56 120q-56 -24 -106 -38l-37 55q67 12 141 49t123 87l44 -38q-58 -59 -144 -105l44 -11q-2 -22 -13 -46h550v-61h-332v-134h410v-62zM468 270v134h-180q-60 -101 -121 -132z" />
    <glyph glyph-name="CNS1.14140" 
 />
    <glyph glyph-name="CNS1.14141" 
 />
    <glyph glyph-name="CNS1.14142" 
 />
    <glyph glyph-name="CNS1.14143" 
 />
    <glyph glyph-name="CNS1.14144" 
d="M656 678q-42 -27 -59 -35q-40 99 -107 149l50 36q76 -60 116 -150zM899 457h-58v121h-462v-121h-58v178h578v-178zM926 49h-649v58h649v-58zM321 805q-5 -26 -11.5 -50t-16.5 -50.5l-16 -42t-20 -47l-19 -42.5v-641h-58v519q-27 -46 -99 -127l-43 41q87 86 136 194.5
t93 269.5z" />
    <glyph glyph-name="CNS1.14146" 
d="M950 472l-48 -48q-155 43 -250 106q-117 -77 -240 -100l-43 50q143 27 235 88q-97 84 -138 161h-45v57h430v-66q-45 -66 -147 -154q94 -59 246 -94zM353 375h-62v439h62v-439zM838 247h-681v59h334q-28 45 -75 75l48 36q47 -32 83 -80l-43 -29l334 -2v-59zM179 427h-58
v338h58v-338zM946 -16h-902l-1 59h487q90 64 147 192l65 -25q-56 -105 -126 -167l330 1v-60zM448 86l-52 -38q-18 31 -35 55q-36 52 -100 97l54 33q90 -67 133 -147zM777 729h-249q62 -80 121 -126q74 54 128 126z" />
    <glyph glyph-name="CNS1.14148" 
 />
    <glyph glyph-name="CNS1.14149" 
d="M932 700h-187q45 -49 58 -74l-55 -29l-9 18q-21 44 -71 86h-65q-51 -87 -101 -122l-61 35q112 61 161 241q18 -6 54 -22q-9 -36 -25 -73h301v-60zM915 493l-330 1q-18 -38 -50.5 -77.5t-60.5 -57.5q-8 5 -16.5 12t-18.5 16.5t-16 14.5q104 63 145 238l54 -18
q-1 -13 -7.5 -36t-8.5 -32h309v-61zM513 705h-165q29 -33 54 -80q-21 -15 -54 -30q-27 66 -75 110h-58q-48 -93 -115 -143l-58 34q116 70 167 258q26 -9 53 -23q-12 -40 -22 -67h273v-59zM974 -14l-48 -53q-82 29 -144 93.5t-73 146.5q-3 1 -9 1q-18 -90 -94.5 -152.5
t-172.5 -85.5l-38 58q84 15 150.5 60.5t87.5 119.5h-196l1 59l209 1q8 43 8 96h-58q-33 -53 -73 -80l-56 33q89 59 130 186l54 -18q-6 -31 -21 -62h245v-59h-159q0 -3 -2 -41t-4 -55h222v-60h-164q14 -42 41 -81q28 -38 67.5 -61.5t96.5 -45.5zM452 498l-1 -59l-216 -1
q-1 -16 -1.5 -51t-1.5 -51h165q-2 -162 -19 -285q-9 -65 -66 -83q-30 -10 -104 1q-6 24 -20 70q72 -16 97 -17q23 4 30 25q7 32 10.5 70t5 86.5t3.5 73.5l-106 -1q-18 -202 -122 -333q-1 -1 -5.5 -4.5t-7.5 -4.5l-48 41q78 87 104 204q21 96 23 259l-103 1v59h211
q-12 29 -43 59.5t-65 48.5q6 5 23 15t24 16q34 -12 67 -42.5t52 -65.5q-8 -7 -45 -29v-2h159z" />
    <glyph glyph-name="CNS1.14152" 
d="M609 848l54 -26q-4 -32 -20 -67h313v-60h-202q50 -40 72 -72l-49 -36q-32 55 -114 108h-46q-9 -17 -38.5 -53.5t-53.5 -60.5l-55 36q54 50 84 101t55 130zM366 695q35 -38 59 -80l-57 -36q-27 78 -86 116h-49q-47 -87 -109 -139l-56 40q100 66 153 255l56 -27
q-4 -19 -24 -69h278v-60h-165zM918 418l5 -57l-304 -21q6 -30 27.5 -85t51.5 -114t68.5 -102.5t71.5 -43.5q37 0 65 111l54 -31q-43 -147 -117 -147q-52 0 -101.5 43.5t-85.5 111.5t-60 130.5t-38 119.5l-222 -14l-3 57l217 16q-14 72 -18 161l61 12q6 -106 18 -168
q137 11 310 21zM820 423q-46 69 -115 110q23 16 44 35q30 -12 65 -44t53 -63l-23 -19q-3 -3 -24 -19zM359 495l-78 -105v-460h-63v386q-46 -53 -121 -110l-49 41q81 57 153.5 142t121.5 180l62 -34q-14 -23 -26 -40z" />
    <glyph glyph-name="CNS1.14155" 
d="M920 694h-160q36 -33 67 -100q-6 -5 -14 -9.5t-19 -8.5t-16 -7q-53 97 -91 126h-50l-20.5 -38t-18.5 -33.5t-15 -23.5t-20 -24.5t-24 -19.5l-41 42q47 34 72.5 89.5t38.5 144.5q8 -3 26 -7.5t28 -9.5q-4 -8 -5.5 -31.5t-4.5 -31.5h267v-58zM902 389h-58v91h-703v-91
l-59 -1v152h387q-16 19 -60 48l49 28q17 -13 77 -76h367v-151zM509 694h-182q28 -26 58 -86q-6 -5 -14 -9.5t-19.5 -9l-16.5 -6.5l-15 30.5t-16.5 31t-18 25t-25.5 25.5h-46l-13 -22t-13 -20l-12 -17t-13.5 -16.5l-12.5 -14t-14.5 -14.5t-14.5 -13.5l-17 -15.5t-17 -16
l-41 41q136 98 152 252q15 -6 54 -25q-4 -9 -9 -32t-8 -30h274v-58zM936 101q-2 -9 -5.5 -27t-6.5 -29.5t-9 -25.5t-16 -24t-25 -15l-25 -5h-253q-21 0 -40.5 14t-28.5 35l-7 22v357h287q-2 -161 -17 -240q-4 -18 -18.5 -32.5t-32.5 -19.5q-8 -2 -16 -3t-18.5 0t-15 1.5
t-18.5 3.5t-16 3l-8 24.5t-8 33.5q64 -10 81 -6q10 5 15 31q11 88 13 145h-169v-285q3 -20 22 -28h248q8 3 13 9.5t6.5 12t3.5 15.5t3 14l7 47q20 -6 54 -28zM475 323q-27 -77 -56 -131t-78 -109q-79 -88 -233 -150l-44 47q68 29 98 43.5t69.5 41.5t69.5 60q-32 50 -83 81
q24 28 40 41q54 -34 76 -77h2q42 52 77 155h-151q-60 -121 -166 -185q-2 3 -16.5 18t-19.5 23q66 39 114.5 107.5t67.5 144.5l7 27q16 -4 54 -19q-15 -51 -19 -58h191v-60z" />
    <glyph glyph-name="CNS1.14157" 
d="M934 668h-223v-88h-64v88h-306v-78h-64v78h-224v61h224v107h64v-107h306v107h64v-107h223v-61zM969 -26l-45 -53q-145 74 -235 166q-52 -48 -144 -97.5t-168 -72.5l-37 58q179 50 307 159q-76 94 -86 201h-2q-37 -73 -87 -125l-54 40q122 128 165 348l58 -20
q-6 -38 -24 -102h309v-61h-75q-27 -184 -121 -281q94 -99 239 -160zM392 78h-62v406h62v-406zM313 566q-34 -108 -86 -183v-462h-63v373q-65 -67 -95 -91l-49 45q166 125 236 340zM790 415h-189q20 -146 93 -236q79 88 96 236z" />
    <glyph glyph-name="CNS1.14159" 
d="M296 701h-230v59h230v81h62v-81h287v81h62v-81h228v-59h-228v-71h-62v71h-287v-68h-62v68zM896 -74q-127 71 -220 182q-48 -51 -122.5 -103t-143.5 -81l-43 45q71 24 154 84t118 103q-71 102 -99 251q-26 -64 -71 -121l-42 34v-218h-63v385h63v-151q83 128 106 297
l63 -20q-13 -78 -17 -94h353v-59h-85q-12 -76 -48.5 -164t-81.5 -142q112 -127 220 -176zM587 460q8 -54 35.5 -133.5t59.5 -119.5q78 117 100 253h-195zM316 601q-40 -66 -83 -112t-104 -87l-52 39q122 69 184 195q45 -30 55 -35zM258 311v-380h-64v323l-52 -37
q-24 -16 -51 -31l-45 46q154 79 242 218l51 -35q-10 -19 -34 -50.5t-47 -53.5z" />
    <glyph glyph-name="CNS1.14161" 
 />
    <glyph glyph-name="CNS1.14162" 
d="M779 489h-576v60h512v62h-471v59h471v58h-512v60h576v-299zM904 278h-64v93h-308v-88h274v-181q0 -72 -66 -72h-77l-22 63q6 0 26 -3t33 -2.5t26 4.5q17 11 17 32v100h-211v-296h-64v296h-212v-213h-63v272h275v88h-309v-93h-64v153h809v-153z" />
    <glyph glyph-name="CNS1.14165" 
d="M924 728l-1 -58l-191 -1q42 -42 58 -88l-55 -30q-13 60 -68 118h-65q-46 -89 -98 -141l-59 35q76 66 121 174q-1 1 1 4q3 4 3 5q9 22 32 97l58 -19q-3 -14 -9 -30.5l-13.5 -36l-11.5 -29.5h298zM513 669h-169q32 -41 50 -83l-52 -30q-4 7 -12 28t-15 31q-19 32 -39 54
h-56q-57 -114 -119 -166l-56 34q81 66 144 219q24 77 27 91l55 -26q-11 -47 -28 -93h269zM961 -14l-39 -53q-135 49 -238 148q-138 -109 -301 -146l-33 58q173 38 291 135q-3 7 -12.5 19t-12.5 17q-36 59 -68 154h-2q-31 -51 -68 -90l-59 36q88 77 146 254l17 76l56 -20
q-1 -17 -6 -35t-12.5 -40.5t-10.5 -33.5h314l1 -61l-87 1q-18 -181 -109 -278q74 -79 233 -141zM405 90h-62v374h62v-374zM320 547q-28 -84 -80 -176v-442l-64 1v351h-2q-44 -58 -91 -95l-54 39q163 126 239 350zM774 404h-182l-2 -1q12 -104 95 -227h2q75 88 87 228z" />
    <glyph glyph-name="CNS1.14167" 
 />
    <glyph glyph-name="CNS1.14168" 
 />
    <glyph glyph-name="CNS1.14169" 
 />
    <glyph glyph-name="CNS1.14170" 
 />
    <glyph glyph-name="CNS1.14171" 
 />
    <glyph glyph-name="CNS1.14172" 
 />
    <glyph glyph-name="CNS1.14173" 
 />
    <glyph glyph-name="CNS1.14174" 
d="M874 777q-51 -68 -114 -109l-47 44q79 42 117 101zM931 472l-39 -49q-157 68 -223 178l-2 -190h-61v193q-34 -61 -96.5 -108.5t-135.5 -77.5l-42 50q132 43 206 135h-178v58h146q-20 36 -52.5 64t-66.5 39l49 42q32 -17 67 -47.5t58 -61.5l-50 -34l95 -2v178h61v-178h249
v-58h-185q29 -41 85 -75.5t115 -55.5zM949 62h-102v-131h-61v131h-144l27 196l57 -8l-16 -131h76v158h-132v57h132v87h61v-87h71v-57h-71v-158h102v-57zM638 353q-3 -216 -148 -341q-38 -33 -142 -88l-47 52q121 43 191 123q-27 44 -76 71l45 42q26 -17 64 -62q41 52 51 146
h-105q-38 -80 -88 -127l-55 28q53 46 88.5 117.5t50.5 139.5l53 -18q-8 -36 -30 -83h148zM352 708h-130q-15 -119 -44 -207h145v-469h-61v64h-85v-75h-61v348q0 -1 -38 -54l-53 31q120 153 138 362h-105v58h294v-58zM262 153v291h-85v-291h85z" />
    <glyph glyph-name="CNS1.14176" 
d="M916 557h-62v104h-349v-104h-62v162h229q-34 59 -113 100l48 38q18 -9 44 -28q43 -31 75 -77l-35 -33h225v-162zM846 483h-332v57h332v-57zM413 759q-7 -128 -51 -219l-59 16q53 108 52 214zM972 56l-54 -42q-43 131 -158 211l48 35q44 -30 94.5 -92t69.5 -112zM944 308
h-222v-299q0 -35 -19 -55t-47 -20h-81l-21 61q31 -3 77 -5q30 0 30 24v294h-245v58h528v-58zM180 564l-60 -18q-5 110 -57 203l54 18q52 -93 63 -203zM606 230q-51 -115 -184 -214l-54 40q61 37 112 90.5t78 113.5zM429 221l-55 -35q-31 98 -103 163v-420h-62v354h-2
q-46 -112 -130 -198l-47 40q139 149 173 317h-147v58h153v338h62v-338h150v-58h-150v-77l41 22q72 -62 117 -166z" />
    <glyph glyph-name="CNS1.14179" 
d="M939 41l-45 -51q-109 51 -204.5 133.5t-147.5 181.5h-13v-375h-60v374l-16 1q-25 -51 -62 -97t-71 -76.5t-80.5 -61t-74 -45l-67.5 -34.5l-44 48q107 46 183 103.5t148 161.5h-303v59h251q-32 71 -90 129l51 33q57 -57 100 -130q-20 -16 -46 -30v-2h121v217h61v-218h97v2
l-44 29q54 50 95 127l52 -30q-49 -88 -85 -128h261v-57l-299 -1q-1 -3 2.5 -7.5t3.5 -6.5q112 -155 326 -249zM962 501l-39 -61q-112 33 -244.5 117.5t-193.5 171.5q-90 -163 -418 -290l-40 59q310 94 415 271q-21 20 -52 20.5t-68 -6.5l46 59q96 7 148 -48
q41 -62 97.5 -114t118.5 -86.5t118 -56.5t112 -36z" />
    <glyph glyph-name="CNS1.14181" 
 />
    <glyph glyph-name="CNS1.14182" 
 />
    <glyph glyph-name="CNS1.14183" 
 />
    <glyph glyph-name="CNS1.14184" 
 />
    <glyph glyph-name="CNS1.14185" 
d="M964 452l-43 -51q-82 42 -157 126v-50h-221v55q-70 -77 -165 -134l-45 52q72 35 132.5 92.5t87.5 125.5h-171v61h194q25 77 28 118l59 -20q-12 -66 -21 -98h286v-61h-174q23 -65 81.5 -122.5t128.5 -93.5zM904 322h-289l-33 -97h249q-21 -166 -26 -192q-14 -72 -55 -91
q-17 -8 -39.5 -9.5t-37 1t-42.5 8.5l-37 8l-17 66q12 -2 33 -8.5t33.5 -9.5t34 -5t34.5 3q23 12 27 32q14 60 18 138h-260l51 156h-141v60h497v-60zM394 288q-169 -41 -298 -81l-31 58q100 100 155 186q-122 -34 -126 -35l-34 61q79 126 168 358l56 -26q-87 -203 -154 -319
q34 4 128 25q27 40 68 120l58 -26q-101 -201 -225 -319q17 2 57 11t95 22.5t83 19.5v-55zM417 124l-318 -110l-30 56l348 114v-60zM759 537q-47 57 -73 131h-65q-28 -71 -76 -131h214z" />
    <glyph glyph-name="CNS1.14187" 
d="M950 411l-38 -53q-88 26 -151 81t-92 112l-2 -183h-62v184q-34 -66 -94 -116.5t-131 -75.5l-43 49q145 48 201 142h-162v59h229v81q-171 -16 -195 -17l-28 61q279 5 453 79l36 -47q-89 -41 -204 -62v-95h235v-59h-169q66 -107 217 -140zM892 189q-13 -135 -28 -192
q-10 -37 -29 -53t-59 -18q-88 6 -129 16l-12 63q75 -21 134 -23q23 0 34 25q12 45 21 124h-106l20 146h-141q-9 -140 -43 -211q-23 -48 -72.5 -91t-120.5 -62l-48 56q68 13 123 53.5t71 102.5q21 82 24 152h-97v59h372l-20 -147h106zM352 246q-179 -38 -269 -65l-24 58
q52 52 157 216q-18 1 -60.5 -6.5t-67.5 -14.5l-27 52q103 167 155 323l53 -29q-42 -136 -138 -282q50 6 113 16q16 27 56 106l51 -29l-24.5 -49l-29.5 -59.5t-31 -58t-38 -62.5t-40 -54.5t-45 -51.5q19 3 94 19t115 23v-52zM367 88l-281 -98l-30 51q55 17 153 53t158 54v-60
z" />
    <glyph glyph-name="CNS1.14190" 
d="M938 10q0 -28 -16.5 -46t-43.5 -18h-85l-22 62q30 -4 87 -6q22 0 22 23v261h-111q0 -115 -17.5 -203t-68.5 -156l-51 36q46 71 63 152q16 74 16 255v422h227v-782zM629 34q0 -31 -18.5 -51t-44.5 -20h-89l-20 60q73 -5 91 -4q12 -1 18 5.5t6 19.5v242h-105
q-4 -192 -124 -352l-51 42q62 73 88 145q30 81 30 241v430h219v-758zM345 250l-76 -22l-99.5 -29t-92.5 -29l-24 58q95 93 162 221q-53 -4 -133 -26l-27 52q76 97 155 323l53 -29q-59 -159 -137 -281q18 2 55 5.5t56 5.5q6 10 57 110l50 -28q-3 -5 -18 -37t-21 -43.5
l-21.5 -42.5t-25 -47l-26 -43t-30 -45.5t-31.5 -39t-35 -37.5q102 25 209 56v-52zM326 73l-257 -90l-30 51q50 16 287 99v-60zM880 568v166h-111v-166h111zM880 341v172h-111v-172h111zM572 568v166h-105v-166h105zM572 341v172h-105v-172h105z" />
    <glyph glyph-name="CNS1.14192" 
 />
    <glyph glyph-name="CNS1.14193" 
 />
    <glyph glyph-name="CNS1.14194" 
 />
    <glyph glyph-name="CNS1.14195" 
d="M386 355v424h464v-424h-267h-197zM704 208q-23 -18 -50 -37q-61 100 -124 143l44 32q34 -23 72.5 -62.5t57.5 -75.5zM901 39q-19 41 -55.5 84.5t-76.5 71.5l44 40q45 -29 82.5 -73t55.5 -80zM263 619q-61 72 -160 128l34 44q89 -42 169 -124zM778 -10q-18 -29 -67 -29
h-195q-79 0 -79 80v219h62v-213q0 -27 25 -27h184q21 0 37 44q7 21 15 56l56 -30q-17 -69 -38 -100zM210 426q-46 42 -72 63q-41 33 -84 55l31 44q103 -52 163 -115zM291 31l-52 38q71 67 98 171l56 -31q-29 -110 -102 -178zM114 -59l-51 36q56 70 96 174t52 201l57 -24
q-14 -104 -53 -207t-101 -180zM788 720h-138v-120h138v120zM788 541h-138v-127h138v127zM588 720h-140v-120h140v120zM588 541h-140v-127h140v127z" />
    <glyph glyph-name="CNS1.14197" 
d="M568 -24q35 28 92 79q72 92 101 147q-14 43 -25 102l-6.5 46.5t-11.5 63.5l-5 20q-31 -62 -64 -109l-48 39q7 10 28.5 43t32.5 48q23 60 36 101t24.5 117.5t9.5 159.5l10 -2t11 -2t9 -2q18 -4 28 -8q5 -103 -13 -186h179v-57h-53q0 -83 -22 -196.5t-58 -184.5
q47 -125 140 -221l-50 -43q-59 64 -128 197q-53 -95 -170 -195zM341 -14q-28 42 -37 54q20 4 74.5 13.5t77.5 14.5v161h-103v59l104 1l-1 131l59 -1v-130h109v-60h-109v-149q35 6 132 26v-56q-60 -14 -306 -64zM596 426q-1 3 -2.5 9t-2.5 9q-6 14 -11 27q-31 -3 -67 -9
t-83.5 -15.5t-70.5 -13.5l-36 54q103 121 128 237h-118v55h315v-56h-137q-22 -110 -117 -226q29 2 86.5 11t85.5 11q-26 33 -60 69l48 27q67 -68 94 -160q-36 -22 -52 -29zM318 86q-38 50 -89 81q-58 -132 -132 -210l-48 41q83 81 129 198q-30 17 -104 43q36 145 52 323h-72
v61h75q3 35 7 207l56 -7q1 -39 -7 -200h121q-7 -257 -54 -398q33 -23 105 -88zM765 575l-2 -6q-2 -6 -4 -13t-3 -9q19 -175 35 -225l7 -22q16 48 31 128t16 148zM183 562q-25 -211 -42 -286q34 -15 60 -24q39 128 46 310h-64z" />
    <glyph glyph-name="CNS1.14199" 
 />
    <glyph glyph-name="CNS1.14200" 
 />
    <glyph glyph-name="CNS1.14201" 
 />
    <glyph glyph-name="CNS1.14202" 
 />
    <glyph glyph-name="CNS1.14203" 
d="M926 733h-561v53h561v-53zM868 451h-450v238h450v-238zM948 350h-599v54h599v-54zM879 61h-471v247h471v-247zM347 249q-179 -38 -269 -65l-24 58q52 52 157 216q-18 1 -60.5 -6.5t-67.5 -14.5l-27 52q103 167 155 323l53 -29q-42 -136 -138 -282q50 6 113 16
q16 27 56 106l51 -29q-3 -5 -24.5 -48l-30 -60t-30.5 -56.5t-38 -63.5t-39 -54t-46 -52q19 3 93 18l116 23v-52zM926 -41h-568v54h568v-54zM366 93l-281 -98l-30 51l311 107v-60zM807 593v45h-135v-45h135zM807 503v46h-135v-46h135zM611 593v45h-132v-45h132zM611 503v46
h-132v-46h132zM819 210v46h-147v-46h147zM818 114v52h-146v-52h146zM611 210v46h-142v-46h142zM611 114v51h-142v-51h142z" />
    <glyph glyph-name="CNS1.14205" 
 />
    <glyph glyph-name="CNS1.14206" 
 />
    <glyph glyph-name="CNS1.14207" 
d="M967 367l-35 -51q-72 22 -146.5 60.5t-121.5 76.5q-140 -99 -294 -140l237 -2v76h59v-76h270v-57h-269v-238q0 -33 -25 -57q-10 -9 -24.5 -13.5t-23.5 -5t-30.5 -0.5h-27.5l-24 61q9 0 33.5 -3.5t38.5 -2.5q9 1 15.5 8t8.5 15v237h-248v61l-29 46q171 42 291 137
q-60 64 -95 141q-30 -42 -57.5 -67t-89.5 -68l-40 44q82 56 129 116t89 170q11 -4 30 -13l23 -11q-5 -13 -15.5 -37.5t-14.5 -34.5h260v-56q-25 -50 -65 -102.5t-71 -82.5q50 -38 125 -76.5t137 -54.5zM966 28q-42 -42 -46 -45q-107 124 -196 192l42 37q83 -67 200 -184z
M351 591q-120 -236 -208 -335q18 2 84 18t109 24v-52q-127 -27 -253 -65l-24 58q52 52 157 216q-18 1 -65 -6.5t-71 -14.5l-27 52q100 149 163 323l53 -28q-62 -168 -146 -283q85 10 121 16q16 27 56 106zM521 177q-40 -72 -89.5 -114.5t-120.5 -81.5l-38 41q70 43 119 86.5
t87 104.5zM356 88l-269 -98l-30 51q66 21 170 59.5l129 47.5v-60zM771 682h-205q47 -88 100 -146q59 54 105 146z" />
    <glyph glyph-name="CNS1.14209" 
 />
    <glyph glyph-name="CNS1.14210" 
d="M936 701h-196v-71l142 -1v-377h-491v378l157 -1l2 73l-187 -1v59h171q-30 36 -72 54l48 44q57 -31 94 -98h66q63 45 90 103q11 -4 29 -18t25 -18q-24 -41 -57 -64l179 -3v-59zM947 134h-131l-1 -124q-6 -50 -46 -65q-14 -5 -31 -6t-39 0t-34 0l-20 60q11 1 36 -2t43 -0.5
t28 18.5l1 120l-384 -1l-1 60h385v44h63l-1 -44h132v-60zM365 456h-119v-309l35 1v241h62v-331h-62v30h-201v302h61v-243h43v308l-145 1v58l145 1v153h-38q-31 -88 -66 -126l-47 36q78 106 91 273l54 -23q-5 -57 -16 -101h183v-59l-99 -1v-153l119 1v-59zM649 47l-43 -41
q-74 65 -167 78l41 43q96 -17 169 -80zM820 498v76h-80v-54q15 -22 33 -22h47zM678 630v72h-71l-1 -72h72zM820 311l-1 127q-22 3 -41.5 1t-41 1.5t-34.5 16.5q-17 12 -22 33t-2.5 41.5t-0.5 42.5l-70 -1q0 -15 -4 -45q-7 -67 -107 -121q-6 8 -20 23t-20 25q8 2 16.5 6.5
t18.5 11t16 9.5q47 40 41 92h-94v-264zM773 345h-270v59h270v-59z" />
    <glyph glyph-name="CNS1.14212" 
 />
    <glyph glyph-name="CNS1.14213" 
d="M847 582h-314v213h314v-213zM457 582h-314v213h314v-213zM902 290l-1 -47q-2 -139 -36 -244q-9 -29 -27.5 -43.5t-56.5 -15.5q-46 -2 -100 7l-15 66q78 -15 93 -16q45 -3 53 35q20 91 26 199h-596v60q27 80 37 137l64 -9q-11 -52 -35 -129h341q14 66 30 175h-556v59h628
q0 -31 -4.5 -66.5t-8 -55t-12.5 -61.5l-11 -51h187zM770 84h-683v60h683v-60zM785 641v95h-192v-95h192zM395 641v95h-193v-95h193z" />
    <glyph glyph-name="CNS1.14218" 
 />
    <glyph glyph-name="CNS1.14219" 
 />
    <glyph glyph-name="CNS1.14220" 
 />
    <glyph glyph-name="CNS1.14221" 
 />
    <glyph glyph-name="CNS1.14222" 
 />
    <glyph glyph-name="CNS1.14223" 
d="M745 608q-17 45 -52 76q7 7 21 15l22 12q30 -19 56 -75q-16 -9 -47 -28zM428 503q-8 8 -34 41q102 43 171 80v-58q-21 -9 -65 -30.5t-72 -32.5zM863 636v97h-172v57h232v-344h-59v119l-158 -79q-2 3 -17.5 23t-23.5 28q49 17 107.5 47t90.5 52zM354 738l56 -28
q-17 -97 -73 -176l-53 22q51 80 70 182zM269 478h160v-58h-94v-297q34 18 90 55v-69q-57 -36 -128 -88l-20 20q-14 14 -22 21q21 24 21 65v293h-65q-2 -93 -5.5 -144.5t-15 -119t-37 -118t-66.5 -93.5l-43 41q67 80 88 185t19 249h-100v58h156v358h61q0 -279 1 -358z
M398 790h253l1 -341l12 23l51 -39q-21 -30 -62 -76h243v-420h-67v76h-307v-76h-65v420h120q11 8 28.5 29.5t29.5 39.5l12 18h-54l1 291h-196v55zM528 647l-26 -14.5t-25 -13.5q-15 50 -52 84l45 25q38 -29 58 -81zM829 297h-307v-85h307v85zM829 156h-307v-84h307v84z
M113 526q-5 85 -60 187l54 18q53 -95 65 -188z" />
    <glyph glyph-name="CNS1.14226" 
 />
    <glyph glyph-name="CNS1.14227" 
d="M876 630h-345v56h345v-56zM960 329l-36 -50q-85 23 -157 91t-101 151h-71v-152l113 39v-58l-159 -54l-37 43q22 15 22 40v142h-55v-186q0 -128 -21 -212q-26 -106 -73 -176l-62 31q64 100 80 204l-45 -29q-24 82 -90 142v-361h-64v309h-2q-44 -113 -121 -190l-53 40
q124 115 167 302h-136v59h145v88h-111v58h111v75h-125v59h125v106h64v-106h121v-59h-121v-75h108v-58h-108v-88h131v-59h-131v-68l29 15q40 -32 63 -62t44 -75h2q9 74 9 147v441h513v-59h-450v-154h460v-59h-210q30 -58 57 -85q58 30 93 78l42 -40q-31 -41 -93 -76
q46 -41 133 -69zM955 180h-131v-174q0 -72 -69 -72h-72l-22 63q43 -5 71 -5q13 0 21.5 8t8.5 23v157h-279v58h279v69h62v-69h131v-58zM685 44l-50 -40q-31 74 -122 121l45 37q78 -38 127 -118z" />
    <glyph glyph-name="CNS1.14229" 
 />
    <glyph glyph-name="CNS1.14230" 
 />
    <glyph glyph-name="CNS1.14231" 
d="M948 -28h-511v60h75v534h63v-534h120v790h63v-332h148v-59h-148v-399h190v-60zM477 198l-71 -24v-251h-63v232l-265 -83l-40 54q16 3 73 19v576h-53v60h416v-60h-68v-487l71 24v-60zM343 587v134h-169v-134h169zM343 388v141h-169v-141h169zM343 216v114h-169v-168z" />
    <glyph glyph-name="CNS1.14233" 
 />
    <glyph glyph-name="CNS1.14234" 
 />
    <glyph glyph-name="CNS1.14235" 
d="M901 -59h-63v68l-302 -1v-67h-59v847l424 -1v-846zM471 -32l-1 -6q-6 -3 -25.5 -15t-31.5 -17q-1 13 -5 27.5t-7.5 23.5t-10.5 25.5l-10 23.5h-7q-23 -7 -82 -22t-100.5 -29t-78.5 -32l-46 62q70 102 103 205q18 57 21 75h-148v60h69l2 438q54 -1 161.5 0t162.5 1l1 -59
l-260 -1v-87h219v-56h-219v-88h219l1 -58h-221v-89h280v-61l-204 -1q-32 -145 -104 -255h6q32 9 97 25.5l98 25.5q-28 45 -72 92l53 31q114 -134 140 -239zM839 298l-1 430h-65v-415q4 -11 16.5 -14t25 -1t24.5 0zM839 243q-58 -2 -78 4q-19 6 -33 23t-14 35v423l-52 1
q0 -54 0.5 -160.5t-0.5 -163.5q0 -120 -77 -214q-24 17 -41 32l-7 3l-1 -157h302zM603 397q2 168 0 332l-67 -1l1 -494q64 60 66 163z" />
    <glyph glyph-name="CNS1.14237" 
 />
    <glyph glyph-name="CNS1.14238" 
 />
    <glyph glyph-name="CNS1.14239" 
 />
    <glyph glyph-name="CNS1.14240" 
 />
    <glyph glyph-name="CNS1.14241" 
 />
    <glyph glyph-name="CNS1.14242" 
d="M960 243l-57 -26q-20 91 -65 169l-17 -171t-15 -148q-10 -92 -65 -121q-38 -22 -136 -3l-16 70q66 -20 105 -20q22 3 36 25q17 95 33 259t17 282h-149q-2 -362 -148 -567q-26 -36 -53 -57l-50 42q128 126 172 350q17 89 17 231h-192v58h192v218h61v-218h210l-3 -178
q6 1 16.5 5.5t11.5 4.5q66 -92 95 -205zM515 434q-18 -140 -71 -221l-61 26q62 85 76 210zM347 792l-1 -787q-4 -20 -19 -38t-34 -22q-12 -3 -27 -3.5t-34 0t-29 0.5l-24 63q58 -6 87 -6q17 10 20 23v235h-122q2 -207 -79 -321l-54 35q70 96 70 257l3 564h243zM288 556v178
h-123l-1 -178h124zM286 315v184l-122 1v-185h122z" />
    <glyph glyph-name="CNS1.14245" 
 />
    <glyph glyph-name="CNS1.14246" 
 />
    <glyph glyph-name="CNS1.14247" 
 />
    <glyph glyph-name="CNS1.14248" 
d="M544 615l-52 -26q-38 117 -121 213l45 26q85 -101 128 -213zM292 620l-48 -30q-46 86 -157 169l41 33q46 -36 65.5 -52.5t47.5 -48.5t51 -71zM958 261l-46 -50q-104 54 -185 121v-54h-209v-123h305v-56h-305v-184h-61v184h-298v56h298v123h-203v48q-113 -77 -193 -115
l-38 50q120 56 192.5 117t132.5 140h-298v57h586q98 124 160 249l55 -32q-78 -138 -146 -218h224v-56h-297q49 -79 138.5 -148.5t187.5 -108.5zM725 334q-92 78 -157 184h-153q-54 -96 -154 -184h196v137h61v-137h207z" />
    <glyph glyph-name="CNS1.14250" 
 />
    <glyph glyph-name="CNS1.14251" 
d="M806 558l-54 29q53 60 75 146l55 -19q-21 -91 -76 -156zM646 727q-88 -11 -272 -19l-27 55q165 3 286 17.5t221 56.5l41 -49q-101 -42 -249 -61zM633 560q-10 63 -52 123l53 19q43 -49 57 -123zM410 668l54 22q41 -40 63 -118l-59 -22q-18 75 -58 118zM917 536v-130h-58
v69h-435v-71h-59l-1 132h553zM811 101v-163h-62v163h-141q16 71 34 167l59 -12q-2 -11 -7 -45t-8 -51h63v135h-102v57h102v87h62v-87h100v-57h-100v-135h127v-59h-127zM377 -56l-42 46q100 53 153 142q-26 33 -51 45l33 47q31 -14 45 -33q25 46 40 119h-64q-39 -78 -93 -137
l-46 36q94 108 113 233l62 -13q-4 -25 -16 -60h114q-8 -54 -16.5 -93t-26.5 -88.5t-43 -88t-66 -80t-96 -75.5zM318 73q-27 37 -71 65q-26 -61 -53.5 -104t-72.5 -89l-48 41q47 45 74.5 85.5t48.5 95.5q-79 44 -122 59q48 197 51 324h-71v61h74q6 75 8 207l59 -8
q0 -52 -7 -199h142q-8 -265 -60 -420q40 -22 87 -66zM186 550q-1 -10 -8 -69t-11 -87q-7 -56 -30 -138q46 -16 82 -33q47 152 52 327h-85z" />
    <glyph glyph-name="CNS1.14255" 
 />
    <glyph glyph-name="CNS1.14256" 
 />
    <glyph glyph-name="CNS1.14257" 
 />
    <glyph glyph-name="CNS1.14258" 
 />
    <glyph glyph-name="CNS1.14259" 
 />
    <glyph glyph-name="CNS1.14260" 
 />
    <glyph glyph-name="CNS1.14261" 
 />
    <glyph glyph-name="CNS1.14262" 
 />
    <glyph glyph-name="CNS1.14263" 
d="M932 664h-232v-88h-62v88h-302v-89h-62v89h-229v58h229v111h62v-111h302v111h62v-111h232v-58zM946 145q-13 -70 -38 -126q-23 -50 -82 -50h-546q-37 0 -62.5 17t-25.5 54v309h555v147h-613v58h675v-318h-62v55h-493v-225q0 -39 43 -39h517q11 0 20 5.5t16 16t12 21.5
t9 27t6.5 27t5.5 28l4 23z" />
    <glyph glyph-name="CNS1.14265" 
 />
    <glyph glyph-name="CNS1.14266" 
 />
    <glyph glyph-name="CNS1.14267" 
 />
    <glyph glyph-name="CNS1.14268" 
d="M924 666h-210v-97h-67v97h-307v-97h-67v97h-209v61h209v114h67v-114h307v114h67v-114h210v-61zM952 92q-1 -3 -4 -24t-4 -27.5t-5.5 -25t-8 -26.5t-10.5 -22t-14.5 -20.5t-19 -13t-25.5 -9.5q-8 -5 -27 -0.5t-25 6.5t-23.5 10.5l-23.5 11.5q-92 40 -160.5 122t-85.5 179
h-285v-251l300 68v-58q-67 -18 -193 -47.5l-175 -41.5l-33 52q34 15 34 52v465q6 0 69 1t104 2.5t115.5 7t130.5 14t121 25t113 38.5l49 -49q-103 -45 -305 -78q-2 -57 12 -141h349v-59h-337q16 -82 79 -147t150 -104q25 -12 45 -4q5 4 9 10.5t7 12.5t5 16.5t3.5 17t2.5 19
t1.5 17.5t1 17t0.5 14zM509 312q-10 75 -10 137q-54 -7 -95 -8l-173 -6v-123h278z" />
    <glyph glyph-name="CNS1.14270" 
 />
    <glyph glyph-name="CNS1.14271" 
d="M613 836l59 -23q-3 -14 -9 -28q-4 -10 -18 -42h305v-60h-202q46 -35 102 -118l-50 -36q-24 41 -63 86t-74 68h-49q-28 -52 -89 -115l-54 34q3 3 9.5 9l11.5 11t9 10q65 73 112 204zM366 683q37 -41 78 -115l-57 -35q-15 42 -45.5 86.5t-59.5 63.5h-49q-36 -69 -135 -145
l-52 37q138 93 185 257l57 -22q-6 -17 -15 -38.5l-12 -28.5h270v-60h-165zM64 -17v60h191v381h66v-381h178v501h63v-179h303v-60h-303v-262h382v-60h-880z" />
    <glyph glyph-name="CNS1.14273" 
 />
    <glyph glyph-name="CNS1.14274" 
d="M930 671h-219v-88h-66v88h-306v-88h-66v88h-215v59h215v99h66v-99h306v99h66v-99h219v-59zM881 188q0 -31 -23.5 -55.5t-60.5 -24.5h-75l-21 63q71 -6 81 -4q16 -1 25.5 9.5t7.5 25.5v271h-219v-547h-67v608h352v-346zM484 546q-35 -21 -103 -46q-78 -27 -194 -39v-107
h263v-61h-263v-197l293 75l1 -61l-338 -89l-50 51q29 23 29 69v373q185 3 319 78z" />
    <glyph glyph-name="CNS1.14276" 
 />
    <glyph glyph-name="CNS1.14277" 
d="M791 408l-58 30q37 40 69 107.5t41 134.5l56 -31q-10 -63 -42.5 -132t-65.5 -109zM524 408q-16 155 -88 240q11 6 30.5 14.5t25.5 11.5q68 -89 99 -241zM635 363v354h-212v59h503v-59h-229v-354h256v-62h-256v-368h-62v368h-255v62h255zM304 189q37 -30 97 -107l-46 -49
q-65 84 -87 103q-72 -101 -183 -185l-41 50q121 91 175 174q-60 53 -130 89q49 146 72 308h-104v59h111l21 190l64 -11l-24 -179h159q0 -164 -19 -261q-14 -67 -27.5 -103t-37.5 -78zM224 572q-21 -120 -30 -161q-17 -79 -35 -123l97 -59q69 131 69 343h-101z" />
    <glyph glyph-name="CNS1.14279" 
 />
    <glyph glyph-name="CNS1.14280" 
 />
    <glyph glyph-name="CNS1.14281" 
 />
    <glyph glyph-name="CNS1.14282" 
d="M938 696h-226v-73h-63v73h-308v-73h-63v73h-224v59h223v86h65v-86h307v86h63v-86h226v-59zM810 586q-8 -108 -21 -155q-15 -37 -52 -55q-15 -4 -35.5 -5.5t-32.5 -1t-39 3t-33 2.5l-15 63q58 -11 115 -11q20 2 26 17q12 25 17 84h-237q-31 -70 -82 -103
q-39 -26 -93.5 -42.5t-89.5 -22t-106 -13.5l-32 64q6 0 45 3t48.5 4.5t43.5 6t47 9t40 13t42 19.5t33 26.5t31 35.5h-251v58h276q18 49 20 86l59 -18q-1 -16 -12 -68h288zM904 286q-6 -128 -12 -170l-3.5 -35.5t-4.5 -37.5t-8 -30.5t-16.5 -30.5t-27.5 -21q-11 -6 -27 -8
t-26.5 -1l-31 3t-27.5 3l-11 62q5 -1 23 -5.5t28.5 -6t25 2t24.5 13.5q15 29 23 108q7 73 6 96h-116q-19 -162 -127 -242q-46 -35 -95 -54l-41 54q64 19 116.5 64t69.5 104q12 41 16 74h-142v58h147q5 34 3 71l62 -18q0 -1 -2.5 -21.5t-4.5 -31.5h179zM474 286
q0 -130 -22 -256q-8 -45 -48 -67q-27 -15 -127 -2l-6 65q60 -22 92 -13q5 1 8.5 3t6.5 5l5.5 5.5t4 7.5t3 7.5t2.5 8.5t1.5 8.5l2 10t1.5 9.5q12 68 16 150h-105q-25 -150 -136 -239q-52 -42 -96 -58l-44 53q67 21 123.5 72.5t75.5 115.5q13 48 15 56h-166v58h174q3 11 8 73
l59 -15q-1 -18 -6 -58h158z" />
    <glyph glyph-name="CNS1.14284" 
 />
    <glyph glyph-name="CNS1.14285" 
d="M947 662h-224v-112h-63v112h-305v-112h-63v112h-229v62h229v111h63v-111h305v111h63v-111h224v-62zM854 -67h-64v93h-566v-93h-62v580h692v-580zM789 83v373h-565v-373h565z" />
    <glyph glyph-name="CNS1.14287" 
 />
    <glyph glyph-name="CNS1.14288" 
 />
    <glyph glyph-name="CNS1.14289" 
 />
    <glyph glyph-name="CNS1.14290" 
d="M913 664h-136v-99h-63v99h-183v-81h-63v81h-131v60h131v106h63v-106h183v106h63v-106h136v-60zM936 467h-72v-465q0 -28 -22 -50.5t-57 -22.5h-74l-22 65l86 -2q15 -1 20 7t5 24v444h-282v60h418v-60zM733 53h-61v52h-71v-60h-61v334h193v-326zM507 556q-15 -67 -47 -145
v-497h-64v377q-16 -28 -57 -66l-40 43v-140h-63v64h-93v-64h-63v588h219v-438q51 43 92.5 128t63.5 175zM672 164v156h-71v-156h71zM236 250v408h-93v-408h93z" />
    <glyph glyph-name="CNS1.14293" 
 />
    <glyph glyph-name="CNS1.14294" 
d="M933 675h-220v-75h-63v75h-312v-72h-63v72h-215v59h215v100h63v-100h312v100h63v-100h220v-59zM952 124q-1 -3 -1.5 -7.5t-1.5 -10.5t-2 -10q-2 -9 -5 -29l-4 -27q-6 -34 -34.5 -55t-64.5 -21h-220q-31 0 -57.5 18.5t-26.5 46.5v178h-30q-26 -60 -73.5 -108.5t-106 -80.5
t-120.5 -52t-128 -29l-30 62q294 41 390 208h-228l-1 147q-38 -27 -94 -50l-41 52q118 49 194 129.5t115 168.5l57 -24q-9 -25 -32 -65h269q-6 -63 -36 -135h187v-223h-229v-141q0 -43 42 -43h193q44 11 53 78q5 36 7 44zM764 266v105h-214q-14 -75 -24 -105h238zM602 507
h-231q-10 -14 -67 -77h266q28 57 32 77zM488 371h-216v-105h190q22 72 26 105z" />
    <glyph glyph-name="CNS1.14298" 
 />
    <glyph glyph-name="CNS1.14299" 
 />
    <glyph glyph-name="CNS1.14300" 
 />
    <glyph glyph-name="CNS1.14301" 
 />
    <glyph glyph-name="CNS1.14302" 
 />
    <glyph glyph-name="CNS1.14303" 
 />
    <glyph glyph-name="CNS1.14304" 
d="M923 685h-217v-75h-66v75h-320v-78h-66v78h-196v58h196v91h66v-91h320v88h66v-88h217v-58zM958 27l-51 -41q-33 77 -132 132l49 37q33 -13 59.5 -35.5t40 -40.5t34.5 -52zM848 581q-11 -220 -48 -344q-10 -34 -52 -47q-38 -4 -107 12l-11 67q61 -18 86 -20q19 4 28 21
q12 40 23.5 128t11.5 123h-110q-13 -80 -63 -149q14 -9 41 -24.5l40 -23.5l-45 -42q-63 39 -71 43q-110 -106 -285 -153l-45 54q73 15 153.5 51.5t117.5 75.5q-87 32 -97 35q-86 -76 -249 -112l-50 58q146 16 222 72q-22 6 -79 10l47 51q12 -1 89 -14q27 24 44 68h-106
q-76 -73 -216 -118l-50 53q121 29 196 86q76 58 98 121l52 -21q-3 -17 -31 -61h466zM599 99l-54 -39q-23 86 -110 128l51 31q69 -24 113 -120zM739 89q-15 -66 -37.5 -102.5t-66.5 -36.5h-236q-41 0 -65 26t-24 61v118h67v-105q0 -19 14 -31.5t31 -12.5h194q30 0 43 28
q15 33 22 83zM257 113q-58 -91 -167 -133l-49 46q50 16 95 48t73 75zM608 521h-107q-13 -44 -42 -84l97 -37q40 47 52 121z" />
    <glyph glyph-name="CNS1.14306" 
d="M936 690h-221v-73h-61v73l-306 -1v-45l28 -15q-5 -5 -34 -42h513q-11 -215 -34 -296q-5 -17 -22 -34t-34 -20q-24 -5 -61 -2q-24 1 -52 5l-10 59q59 -13 92 -11q9 0 19 10t13 21q14 47 24 205h-113q-22 -117 -97 -181t-202 -105l-39 44q244 72 275 242h-120
q-68 -166 -328 -237q-3 3 -8.5 10t-6.5 9l-24 30q103 24 184 71t116 117h-135q-73 -75 -164 -113q-6 8 -39 44q128 56 196 150v85h-218v60h218v70h63v-70h306v71h61v-72h221v-59zM946 36q-2 -4 -51 -39q-33 51 -69 88.5t-88 71.5q27 19 46 37q53 -29 88.5 -63.5t73.5 -94.5z
M602 119l-56 -36q-26 49 -49.5 79t-64.5 56l56 32q67 -42 114 -131zM736 98q-1 -8 -3.5 -23t-4.5 -23q-6 -27 -15 -47q-20 -44 -67 -49h-249q-41 0 -58.5 18t-17.5 55v167h63v-147q0 -32 33 -39h214q26 11 35 49q4 21 8 66zM248 178q-44 -110 -139 -191l-53 39
q87 65 138 180q18 -10 30 -16z" />
    <glyph glyph-name="CNS1.14308" 
 />
    <glyph glyph-name="CNS1.14309" 
 />
    <glyph glyph-name="CNS1.14310" 
 />
    <glyph glyph-name="CNS1.14311" 
 />
    <glyph glyph-name="CNS1.14312" 
 />
    <glyph glyph-name="CNS1.14313" 
 />
    <glyph glyph-name="CNS1.14314" 
 />
    <glyph glyph-name="CNS1.14315" 
d="M947 733l-1 -59h-219v-76h-65v77h-311v-77h-63v77h-209v58h209v99h63v-99h311v100h65v-100h220zM872 -62l-64 1v62h-562v-61h-64v357q-27 -27 -48 -40l-52 44q98 55 175.5 144.5t124.5 197.5l56 -22q-6 -13 -17 -32.5t-15 -29.5h356q-8 -26 -19.5 -54t-26.5 -59.5
t-19 -42.5q-14 -35 -60 -33q-17 1 -74 17q-1 7 -4 30t-4 32q43 -20 50 -22q23 -8 40 13q5 8 29 64h-294q-26 -43 -72.5 -95.5t-80.5 -79.5l10 -11q154 37 234 101l37 -52q-100 -73 -262 -103v-53h230v-57h-230l-1 -95h563l-1 95h-230v57h231v77h-269v58h332z" />
    <glyph glyph-name="CNS1.14317" 
 />
    <glyph glyph-name="CNS1.14318" 
d="M921 698h-261v-61h-59v61h-211v-80h-62v79h-264v56h264v80h59v-79h213v79h59v-80h262v-55zM941 124q-5 -71 -29 -117q-20 -39 -67 -34h-169q-22 0 -42.5 14.5t-25.5 36.5l-6 27v140h-166v250h60v-194h105v235h-205v57h206v78h58v-78h244v-56h-243l-1 -236h127v193h60
v-249h-187l1 -139q5 -16 25 -22h154q18 0 31 24q13 45 18 94l26 -12zM377 483q-42 -64 -103.5 -140t-101.5 -112q31 2 203 36v-58q-219 -47 -276 -61q-28 59 -30 62q95 83 146 154q-71 -7 -124 -23l-29 61q35 36 84 107t87 145q12 -4 31.5 -15t25.5 -14q-56 -110 -144 -211
q63 8 122 18l57 85q18 -10 52 -34zM396 44l-307 -55l-33 56l339 56z" />
    <glyph glyph-name="CNS1.14320" 
 />
    <glyph glyph-name="CNS1.14321" 
 />
    <glyph glyph-name="CNS1.14322" 
 />
    <glyph glyph-name="CNS1.14323" 
 />
    <glyph glyph-name="CNS1.14324" 
d="M940 149l-44 -44q-47 40 -87.5 100t-62.5 120l-2 -396h-62v390q-31 -121 -152 -229l-51 41q72 54 126 149.5t62 176.5h-118v59h133v138h62v-138h141v-59h-136q15 -76 71.5 -163t119.5 -145zM903 677h-718v-462q0 -139 -91 -285l-58 37q41 49 63.5 120t22.5 142v508h389
q-32 40 -94 71l51 38q26 -11 59.5 -44.5t48.5 -64.5h327v-60zM574 264l-49 -37q-11 35 -43.5 68.5t-64.5 55.5v-422h-62v385q-14 -58 -50.5 -123t-72.5 -102l-47 45q60 55 100.5 145.5t54.5 177.5h-128v59h143v138h62v-138h121v-59h-121v-85l32 24q87 -54 125 -132z" />
    <glyph glyph-name="CNS1.14327" 
 />
    <glyph glyph-name="CNS1.14328" 
 />
    <glyph glyph-name="CNS1.14329" 
 />
    <glyph glyph-name="CNS1.14330" 
 />
    <glyph glyph-name="CNS1.14331" 
d="M932 711h-217l-1 -54h-14q11 -19 16 -43h163v-52h-107v-2l45 -20q-6 -24 -35 -53h137v-52h-192v-56h152v-51h-152v-73h-60v73h-151v51h151v56h-189v52h147q-13 35 -45 60l38 13v2h-101v52h143q-15 33 -45 52l36 13v32h-306v-53h-42l-20 -36h156v-152h-261v-34h280v-157
h-341v343h89q32 22 47 71l30 -8v26h-217v58h217v77h62v-77h305v77h64v-77h218v-58zM956 35l-40 -59q-274 56 -383 184v-226h-64v223h-2q-104 -128 -384 -176l-41 55q79 14 125.5 24t109.5 36.5t107 63.5h-304v57h389v54h64v-54h386v-57h-301q47 -49 141.5 -80.5t196.5 -44.5
zM758 562h-115q30 -32 38 -75h29q39 32 48 75zM379 521v50h-201v-50h201zM398 331v53h-221v-53h221z" />
    <glyph glyph-name="CNS1.14333" 
 />
    <glyph glyph-name="CNS1.14334" 
d="M952 722h-236v-40h-62v40h-152q25 -28 33 -59h395v-52h-860v52h399q-4 18 -30 41l43 16v2h-140v-40h-62v40h-233v55h234v60h62v-60h311v59h63v-59h235v-55zM776 458h-549v122h549v-122zM894 279q0 -33 -18 -54t-52 -21h-55l-20 57q37 -6 55 -4q28 4 28 27v86h-654v-176
h-60v227h776v-142zM968 29l-39 -57q-183 17 -307 82q-38 20 -83 62h-9v-185h-60v185h-14q-132 -131 -392 -145l-31 57q211 5 340 86v2h-316v53h413v44h-183v123h430v-123h-187v-43h406v-54h-314v-2q100 -57 252 -79q14 -2 29.5 -3t35 -1.5t29.5 -1.5zM719 500v37h-435v-37
h435zM659 255v41h-318v-41h318z" />
    <glyph glyph-name="CNS1.14336" 
 />
    <glyph glyph-name="CNS1.14337" 
 />
    <glyph glyph-name="CNS1.14338" 
 />
    <glyph glyph-name="CNS1.14339" 
 />
    <glyph glyph-name="CNS1.14340" 
 />
    <glyph glyph-name="CNS1.14341" 
 />
    <glyph glyph-name="CNS1.14342" 
 />
    <glyph glyph-name="CNS1.14343" 
 />
    <glyph glyph-name="CNS1.14344" 
d="M745 529h-528v271h528v-271zM915 411h-522q-6 -17 -15 -50.5t-13 -46.5h413q-36 -209 -79 -310q-28 -67 -92 -64q-38 1 -100 19l-24 78q57 -26 114 -34q27 -5 40 22q18 37 31 77.5t19 68.5t17 85h-426l46 155h-271v57h862v-57zM683 586v156h-404v-156h404z" />
    <glyph glyph-name="CNS1.14348" 
 />
    <glyph glyph-name="CNS1.14349" 
d="M949 254h-573v58h165q-14 33 -67 70l46 24l-128 2v58h235v79h-177v58h177v72h-215v58h159q-17 33 -76 72l56 36q58 -49 87 -108h46q50 42 80 107l53 -33q-16 -33 -59 -74h146v-58h-215v-72h176v-58h-176v-79h244v-58h-161l49 -28q-27 -49 -43 -68h171v-58zM857 -73h-63
v62h-271v-62h-63v273h397v-273zM421 50l-61 -22q1 25 -8 60l-280 -69l-36 57q93 14 161 33v184h-109v352h109v163h58v-163h109v-352h-109v-172l79 20q-23 44 -34 59l53 18q20 -24 42 -76.5t26 -91.5zM765 408h-76v-96h22q39 38 54 96zM627 312v96h-90q37 -25 67 -96h23z
M794 45v99h-271v-99h271zM307 352v234h-52v-234h52zM197 352v234h-52v-234h52z" />
    <glyph glyph-name="CNS1.14352" 
 />
    <glyph glyph-name="CNS1.14353" 
 />
    <glyph glyph-name="CNS1.14354" 
 />
    <glyph glyph-name="CNS1.14355" 
d="M940 132q-4 -30 -6.5 -45t-10 -43t-17 -43t-26.5 -28.5t-40 -15.5h-147q-91 0 -102 89v772l65 -1v-755q0 -20 12.5 -33t38.5 -13h106q27 0 47 30q14 34 20 108zM540 14l-61 -23q0 4 -1.5 12t-1.5 12q-2 5 -7 26.5t-10 31.5l-369 -86l-37 59q90 13 203 40v196h-153l1 347
l152 1v178l62 -1v-176l156 -1v-349h-156v-179q22 4 65 14.5t50 12.5q-3 10 -9.5 20t-17.5 23.5t-14 17.5l57 19q69 -86 91 -195zM413 338v234h-95v-234h95zM256 339l-1 233h-91l-1 -233h93z" />
    <glyph glyph-name="CNS1.14357" 
d="M914 133q-33 -33 -103 -33q-16 0 -48 6q-26 5 -40 9l-17 69q71 -22 105 -22q74 0 74 65q0 48 -31.5 111t-93.5 124l104 258h-190v-789h-64v848h321v-64l-100 -246q116 -121 116 -241q0 -62 -33 -95zM70 15l-34 61l68 11v562h112q22 29 44.5 82.5t30.5 91.5l60 -21
q-7 -31 -26.5 -76.5t-39.5 -76.5h242v-491l49 10v-64zM468 586h-68v-447l68 10v437zM345 586h-62v-468l62 8v460zM229 586h-65v-488l65 11v477z" />
    <glyph glyph-name="CNS1.14360" 
d="M905 722h-289l-1 61l290 -1v-60zM590 679l-52 -42q-31 45 -75.5 80t-92.5 50l43 41q90 -26 177 -129zM950 558l-1 -60h-139v-494q-7 -41 -38 -59q-14 -8 -35.5 -10.5t-40.5 -1t-41 -0.5l-19 62l81 -3q15 1 26 18v488h-157v29.5t-1 30.5h365zM537 419l-49 -43
q-24 47 -67.5 88.5t-90.5 57.5l47 43q46 -19 89.5 -59.5t70.5 -86.5zM302 799q-81 -165 -191 -258l-51 42q125 78 189 249q11 -6 30 -18.5t23 -14.5zM576 287q-57 -193 -202 -338l-53 42q140 123 201 328q34 -18 54 -32zM331 567q-53 -99 -87 -138l1 -501h-65v428
q-67 -59 -102 -81l-48 45q77 47 144.5 123t107.5 158z" />
    <glyph glyph-name="CNS1.14362" 
 />
    <glyph glyph-name="CNS1.14363" 
d="M925 -6h-860v60h332v641l-274 1v59h699q0 -11 -2 -52t-2.5 -55t-2 -51t-2.5 -53.5t-3.5 -49t-4.5 -50l-5 -44t-6 -44t-7 -37t-9 -34.5q-5 -17 -22 -31t-37 -19q-48 -7 -140 14l-13 70q12 -3 35.5 -10t42 -11.5t36.5 -4.5q23 -2 36 22q25 92 43 380h-300v-641h466v-60z
" />
    <glyph glyph-name="CNS1.14366" 
d="M980 446l-43 -48q-103 60 -159 131l-2 -55h-226v55q-77 -82 -153 -129q-9 13 -39 51q157 94 212 216l-180 1v59h202q16 42 30 119l55 -25q-5 -31 -21 -95l281 1v-59h-176q27 -68 86.5 -126t132.5 -96zM256 707l-52 -36q-28 77 -93 124l-15 11l49 34q76 -52 111 -133z
M926 376l-1 -58h-322l-26 -99l265 -1q-9 -139 -35 -230q-12 -27 -39 -44.5t-57 -18.5q-17 0 -92 15l-34 11q-3 12 -9 34t-8 34q5 -2 26.5 -9.5t31 -10l27 -7t33 -6t30.5 -0.5q34 9 43 64l8.5 50.5t8.5 59.5h-296l57 158l-138 -1v59h527zM394 276l-37 -57q-42 57 -110 85
l-1 -394h-64l1 423q-40 -37 -100 -85q-11 8 -27.5 23t-22.5 20q89 62 192 199l3 4q9 12 16.5 27.5t16.5 39.5t12 30h-218v59l289 1q-4 -63 -38 -138q-23 -53 -60 -100v-45l31 -11q22 26 42 88l52 -35q-23 -54 -47 -80q38 -20 70 -54zM771 534q-42 51 -77 133h-59
q-40 -90 -81 -133h217z" />
    <glyph glyph-name="CNS1.14370" 
 />
    <glyph glyph-name="CNS1.14371" 
d="M863 617h-741l-1 163h742v-163zM900 243l-8 -158q-3 -11 -6 -39.5t-6.5 -45.5t-16.5 -35t-36 -25q-40 -12 -115 3l-17 63q66 -17 95 -17q19 2 26 14q14 47 19 121l9 108h-291v55q33 78 36 182q36 -10 53 -16q-4 -74 -34 -168h137q8 42 13.5 126t6.5 93h-233v54h294
q-4 -98 -25 -273h99v-42zM787 93h-255v55h255v-55zM512 484h-96v-102h-99v-38h158v-175h-156v-40h175v-53h-176v-143h-59v142h-209v53h209v40h-158v176h158v38h-100v102h-96v53h97v60h58l1 -60h138v60h59v-60h96v-53zM803 669v59h-167v-59h167zM576 670v58h-168v-58h168z
M350 728h-168v-58h167zM356 436v48h-138v-48h138zM417 222v68h-99v-68h99zM259 222v68h-98v-68h98z" />
    <glyph glyph-name="CNS1.14373" 
 />
    <glyph glyph-name="CNS1.14374" 
 />
    <glyph glyph-name="CNS1.14375" 
 />
    <glyph glyph-name="CNS1.14376" 
 />
    <glyph glyph-name="CNS1.14377" 
 />
    <glyph glyph-name="CNS1.14378" 
 />
    <glyph glyph-name="CNS1.14379" 
 />
    <glyph glyph-name="CNS1.14380" 
 />
    <glyph glyph-name="CNS1.14381" 
d="M909 -76l-60 1v904h60v-905zM513 684l-47 -39q-33 75 -113 144l40 37q76 -55 120 -142zM766 84h-55v638h55v-638zM626 296q0 -124 -21.5 -209.5t-87.5 -166.5l-54 42q60 67 85 156l-139 -89l-34 54q22 19 22 50v343h-90v-452h-55v73h-106v-73h-55v745h216v-232h149v-410
l108 69q4 33 4.5 67t-0.5 79t-1 59v424h59v-529zM251 569v140h-104v-140h104zM251 365v147l-104 1v-148h104zM251 155v154h-104v-154h104z" />
    <glyph glyph-name="CNS1.14384" 
 />
    <glyph glyph-name="CNS1.14385" 
 />
    <glyph glyph-name="CNS1.14386" 
 />
    <glyph glyph-name="CNS1.14387" 
 />
    <glyph glyph-name="CNS1.14388" 
 />
    <glyph glyph-name="CNS1.14389" 
 />
    <glyph glyph-name="CNS1.14390" 
 />
    <glyph glyph-name="CNS1.14391" 
d="M895 699q-19 -130 -82 -215l-58 29q24 27 39 57l2 4q35 70 44 144q0 1 1 3.5t2 4.5q30 -14 52 -27zM912 800q-173 -86 -515 -88q-7 11 -23 33t-23 34q312 -22 514 67zM680 511l-63 -14l-1 3q0 4 3 4q-3 100 -56 180q3 1 24 5.5t32 6.5q52 -76 61 -185zM516 503
q-9 -5 -29 -14t-31 -16q-10 97 -83 181q30 17 56 27q73 -84 87 -178zM308 675l-50 -41q-18 38 -58.5 84.5t-79.5 78.5l45 38q38 -26 79.5 -72.5t63.5 -87.5zM899 -68h-64v58h-349v-18v-22v-19h-69l1 479q63 8 101 20t80 41l47 -37q-32 -27 -79.5 -47t-83.5 -23v-122h145v-57
h-145v-138h352v140l-153 1v55l153 -1v121h-162v56h226v-487zM407 84l-190 -140l-37 54q24 19 24 50v423h-141v57h203v-471l141 94v-67z" />
    <glyph glyph-name="CNS1.14393" 
 />
    <glyph glyph-name="CNS1.14394" 
 />
    <glyph glyph-name="CNS1.14395" 
d="M539 650l-51 -39q-22 40 -59.5 81t-77.5 68l48 36q93 -65 140 -146zM903 540q-1 -17 -6.5 -126.5t-8.5 -158t-10.5 -124t-15.5 -120.5q-4 -22 -20.5 -42t-37.5 -27q-12 -4 -26 -5.5t-23.5 -2t-28 2.5t-23.5 4t-26.5 6.5t-23.5 5.5l-11 64q3 0 52.5 -10t75.5 -8
q11 5 17.5 14t8.5 16t5 20.5t5 19.5q21 180 28 407h-182q-4 -14 -11.5 -47.5t-16.5 -52.5q85 -57 146 -164q-9 -7 -28.5 -19t-23.5 -14q-39 76 -117 140q-23 -58 -56 -118t-96.5 -134.5t-136.5 -118.5q-6 8 -43 45q37 22 72 52q99 84 155 190.5t90 240.5h-229v63h243
q8 27 17 113q11 104 12 175q33 -7 63 -19l-9 -152l-15 -116h235zM309 675l-50 -41q-18 38 -58.5 84.5t-79.5 78.5l45 38q38 -26 79.5 -72.5t63.5 -87.5zM408 124l-190 -140l-37 54q24 19 24 50v383h-141v57h203v-431l141 94v-67z" />
    <glyph glyph-name="CNS1.14397" 
 />
    <glyph glyph-name="CNS1.14398" 
 />
    <glyph glyph-name="CNS1.14399" 
 />
    <glyph glyph-name="CNS1.14400" 
 />
    <glyph glyph-name="CNS1.14401" 
 />
    <glyph glyph-name="CNS1.14402" 
d="M936 649v-58h-254q8 -241 46 -366q36 73 66.5 160.5t41.5 147.5l54 -33q-17 -82 -53.5 -173.5t-80.5 -163.5q46 -91 114 -156q9 44 13 114l59 -26q-3 -85 -30 -138q-10 -19 -25 -19q-13 0 -27.5 7.5t-23 15.5l-22.5 22l-19 19q-3 3 -33 42q-27 37 -45 67
q-103 -125 -183 -180l-48 42q108 74 200 194q-54 145 -64 423h-115v-440l116 77v-64q-26 -22 -79 -56.5t-75 -51.5l-47 44q23 19 23 51v499h176v180h62v-180h253zM776 720q-26 23 -59 40l32 40q74 -33 133 -100q-10 -7 -19 -15.5t-15.5 -15.5t-8.5 -9q-20 22 -63 60zM338 61
q-39 51 -74 80q-63 -107 -161 -204l-48 44q105 95 160 197q-50 37 -127 72q25 70 40 159q6 31 15 90.5l12 78.5h-96v59h106l19 194l63 -4q-3 -40 -12 -111l-10 -79h148q-11 -293 -82 -441l28.5 -24.5t33 -29t25.5 -27.5zM217 578q-33 -206 -55 -299q16 -7 45 -24.5l34 -20.5
q31 71 48 168.5t20 175.5h-92z" />
    <glyph glyph-name="CNS1.14404" 
 />
    <glyph glyph-name="CNS1.14405" 
 />
    <glyph glyph-name="CNS1.14406" 
 />
    <glyph glyph-name="CNS1.14407" 
 />
    <glyph glyph-name="CNS1.14408" 
 />
    <glyph glyph-name="CNS1.14409" 
 />
    <glyph glyph-name="CNS1.14410" 
 />
    <glyph glyph-name="CNS1.14411" 
 />
    <glyph glyph-name="CNS1.14412" 
 />
    <glyph glyph-name="CNS1.14413" 
 />
    <glyph glyph-name="CNS1.14414" 
 />
    <glyph glyph-name="CNS1.14415" 
 />
    <glyph glyph-name="CNS1.14416" 
 />
    <glyph glyph-name="CNS1.14417" 
 />
    <glyph glyph-name="CNS1.14418" 
 />
    <glyph glyph-name="CNS1.14419" 
 />
    <glyph glyph-name="CNS1.14420" 
 />
    <glyph glyph-name="CNS1.14421" 
d="M917 307q-20 -86 -47 -136q-25 -38 -66 -38h-166q-34 0 -58 18.5t-24 54.5v290h243v212h-277v58h340v-370h-63v42h-180v-217q0 -18 7.5 -24.5t25.5 -6.5h133q36 0 54 61q11 35 20 81zM954 47l-28 -66h-210l-186 2q-204 2 -341 140q-23 -101 -95 -196l-55 37q71 86 91 199
q14 79 14 192l63 -10q0 -89 -8 -145q40 -61 108 -92v339h-218v58h181v133h-150v58h150v148h64v-148h149v-58h-149v-133h180v-58h-143v-124h126v-57h-126v-189q21 -9 43.5 -15.5t50 -10.5t46.5 -6.5t53.5 -3.5t48 -1h53h47.5q150 0 241 7z" />
    <glyph glyph-name="CNS1.14423" 
 />
    <glyph glyph-name="CNS1.14424" 
 />
    <glyph glyph-name="CNS1.14425" 
d="M902 398q-63 43 -112.5 98t-71.5 104l-15 34v-171q0 -51 -48 -60q-20 -4 -47 -4h-47l-9.5 29t-9.5 31q54 -7 69 -5q21 0 29 16q3 8 3 26v347h61v-87q6 -16 51 -105q83 56 127 118q15 -15 21 -22q9 -10 24 -22q-23 -34 -65 -70t-77 -56q39 -57 67.5 -85.5t92.5 -71.5z
M815 -62v70h-304v-67h-61v420h426v-423h-61zM540 539q-57 -91 -135 -146l-51 38v-17h-108v-230l146 53v-61l-308 -110l-35 55l45.5 13.5l54 16.5t33.5 11v253h-104v57h104v203h-123v58h320v-59h-133v-202h108v-35q34 20 68 53.5t55 62.5q27 38 54 127h-109v59h186
q-2 -97 -68 -200zM815 302h-304v-91h304v91zM814 152h-303v-85h303v85z" />
    <glyph glyph-name="CNS1.14429" 
 />
    <glyph glyph-name="CNS1.14430" 
d="M965 124q-17 -99 -42 -137q-13 -20 -39 -26q-93 -2 -130 7q-42 21 -42 66v420h63v-409q0 -18 21 -24h72q12 8 18 21.5t9 32.5t6 27l3 43q4 -1 26.5 -8.5t34.5 -12.5zM908 475l-64 -1l1 134l-154 1q0 -18 -1 -76t-2 -83t-4 -76t-9.5 -81.5t-16.5 -71.5t-26 -75t-38 -65
q-62 -90 -137 -156l-50 48q161 123 196 283q24 105 24 221v131h-102v-137h-62v196l164 1l-1 162q7 0 28.5 1t34.5 0l1 -163h216zM508 395q-8 -18 -29.5 -50.5l-27.5 -41.5l-41 -55v-246q-5 -41 -39 -61q-14 -7 -32 -8.5t-42.5 -0.5t-35.5 0q-14 38 -20 58q10 0 29.5 -1.5
t34.5 -1.5t28 4q9 5 15 22v157q-102 -117 -273 -223l-52 47q32 14 116 68q107 71 171 156l6 8q20 20 34 41v7q-52 -10 -146.5 -33t-125.5 -30l-34 53l80 16l-1 458h72q37 39 61 107q8 -3 17.5 -7.5t20.5 -10.5t18 -9q-17 -45 -42 -81l140 1v-385l50 74q18 -10 48 -32z
M348 597l-1 82l-161 -1l-1 -80zM348 459v79l-163 1l1 -80h162zM348 328v71l-162 1v-104z" />
    <glyph glyph-name="CNS1.14432" 
 />
    <glyph glyph-name="CNS1.14433" 
 />
    <glyph glyph-name="CNS1.14434" 
 />
    <glyph glyph-name="CNS1.14435" 
d="M914 657q-6 -99 -43 -204l-64 11q28 56 40 134l-193 -1q-36 -105 -105 -205l-60 33q56 65 97.5 179.5t44.5 239.5l63 -15q-3 -88 -24 -172h244zM956 -16l-50 -49q-154 115 -198 281q-20 -71 -82 -150.5t-132 -133.5l-56 44q77 45 135.5 123t84.5 170q5 17 8.5 37.5
t5.5 35.5t4 40.5t2.5 37t1.5 41.5t1 38l60 -9l-6 -153q15 -105 78 -205t143 -148zM512 201l-155 -42v-230h-63v211l-182 -54l-33 59q101 22 215 57v143h-183v67q66 111 93 224h-127v59h138q11 42 21 136l59 -17q-1 -28 -15 -119h225v-59h-238q-33 -130 -92 -232h119v157h63
v-157h139v-59h-139v-122l155 39v-61z" />
    <glyph glyph-name="CNS1.14439" 
 />
    <glyph glyph-name="CNS1.14440" 
 />
    <glyph glyph-name="CNS1.14441" 
 />
    <glyph glyph-name="CNS1.14442" 
 />
    <glyph glyph-name="CNS1.14443" 
 />
    <glyph glyph-name="CNS1.14444" 
 />
    <glyph glyph-name="CNS1.14445" 
 />
    <glyph glyph-name="CNS1.14446" 
 />
    <glyph glyph-name="CNS1.14447" 
d="M890 62h-63v72l-398 -1v-50h-62v586h227v170h62v-170l234 1v-608zM969 31l-33 -67l-399 1q-188 0 -324 116q-78 -106 -138 -157l-46 45q98 87 138 157q-77 91 -116 198l49 24l19.5 -42t26.5 -52.5t27 -39.5l24 -29q48 114 53 219h-186l-1 58q124 103 184 230l-194 -1
l1 59h257l-1 -63q-40 -103 -159 -224h165q-1 -172 -76 -329q122 -113 351 -111l230 1q29 0 82.5 3.5t65.5 3.5zM828 436l-1 174h-171v-174h172zM594 436v173l-165 1l-1 -174h166zM828 193v185l-172 -1v-185zM594 193l-1 185l-165 -1v-184h166z" />
    <glyph glyph-name="CNS1.14449" 
d="M925 306l-57 -27q-32 127 -113 210l52 27q73 -74 118 -210zM898 642h-173v-505q0 -71 -60 -71h-90l-22 60q65 -4 91 0q12 1 15.5 7.5t3.5 23.5v485h-93v-199q0 -187 -79 -286q-49 -63 -95 -97l-51 41q78 58 120 132q43 75 43 203v206h-187v60h271q-47 58 -138 87l46 41
q29 -2 82.5 -35t77.5 -61l-33 -32h271v-60zM267 649l-55 -41q-38 80 -124 155l50 40q61 -54 129 -154zM450 493q-10 -107 -91 -217l-57 24q86 106 95 213zM969 28l-27 -66h-431q-167 0 -281 138q-12 -11 -34 -34t-35.5 -36t-35 -32t-42.5 -35l-43 52q90 67 155 141v273h-136
v60h199v-332q100 -129 255 -137q152 -8 456 8z" />
    <glyph glyph-name="CNS1.14451" 
d="M404 533l1 250h437v-250h-438zM348 104v56h251v90h-189v61h189v88q-55 -5 -153 -8l-33 60q257 0 398 60l40 -58q-80 -29 -191 -44v-98h193v-61h-192v-90h258v-56h-571zM940 -24l-387 -1q-106 0 -182.5 25.5t-146.5 92.5q-52 -86 -141 -163l-39 49q80 60 137 157
q-56 66 -110 178l44 39l38 -71q27 -49 54 -85q30 76 37 98q15 49 19 103h-190v57q114 99 188 227h-193v59h255v-66q-42 -94 -163 -218h169q-4 -175 -76 -312q69 -66 142.5 -88.5t203.5 -22.5h238q27 0 68 3.5t58 4.5zM778 724h-311v-133h311v133z" />
    <glyph glyph-name="CNS1.14453" 
 />
    <glyph glyph-name="CNS1.14454" 
 />
    <glyph glyph-name="CNS1.14455" 
 />
    <glyph glyph-name="CNS1.14456" 
 />
    <glyph glyph-name="CNS1.14457" 
 />
    <glyph glyph-name="CNS1.14458" 
 />
    <glyph glyph-name="CNS1.14459" 
 />
    <glyph glyph-name="CNS1.14460" 
d="M947 631l-1 -60h-132v-510q0 -133 -101 -133h-103l-22 71q2 0 57 -4t57 0q49 -5 49 46v530h-274v60l274 -1v206h63v-205h133zM679 210l-56 -29q-41 164 -134 259l52 31q92 -87 138 -261zM480 287q-34 -21 -52 -35q-42 107 -115 175v-502h-61v459q-56 -130 -173 -249
l-48 42q178 183 219 394h-173l1 59l173 1v199h62v-200l127 1v-59l-127 -1v-123l30 28q81 -70 137 -189z" />
    <glyph glyph-name="CNS1.14462" 
d="M948 271q15 -79 -39 -128q-28 -25 -68.5 -31t-75.5 8l-22 9q-4 16 -12.5 44.5t-10.5 34.5q3 -1 24 -12t29 -13.5t25.5 -7.5t31 -1.5t26.5 12.5q41 28 30 75q-7 31 -26 64.5t-35 53.5l-47 56l-40 38q74 139 121 264h-155l-1 -803h-64l-1 864l285 1l-1 -75
q-18 -48 -110 -239q103 -100 136 -214zM585 817q-60 -73 -158 -144q73 -55 155 -151l-45 -47q-66 87 -165 162l-7 -2q-77 -46 -234 -113l-49 49q139 52 233 106q-85 59 -190 95q4 5 16.5 23t19.5 27q92 -32 211 -109l6 1q88 59 160 141q10 -6 25.5 -19.5zM619 394h-316
q-55 -217 -223 -399h-3l-47 46q31 31 71 80v2q94 123 134 270h-169v63l185 -1q9 49 11 98q36 -8 63 -19q-1 -9 -2.5 -24.5t-3 -28.5t-3.5 -25h303v-62zM620 -20l-27.5 -18.5t-27.5 -17.5q-9 35 -29 78l-2 2q-136 -14 -263 -45l-44 58q53 71 97 178q14 36 22 64l19 74
q3 -1 59 -32q-37 -149 -115 -261q36 2 104 10t90 10l1 2q-25 39 -56 70l48 36q27 -23 53 -63q44 -65 71 -145z" />
    <glyph glyph-name="CNS1.14464" 
d="M923 216q-1 -32 -20.5 -60.5t-49.5 -44.5q-31 -16 -111 -16l-21 68q6 0 27 -2.5t32 -2.5t27 1.5t27 9.5t18 22q7 15 11 49q-7 64 -41.5 119.5t-92.5 115.5q47 87 117 253h-171v-802h-60v862h296l-1 -59q-12 -27 -32 -76.5t-38 -89.5t-38 -76q122 -139 121 -271zM515 8
h-60v77h-300v-76h-63v644h181v180h64v-179h178v-646zM455 410v185h-119v-185h119zM273 410v186h-119v-186h119zM455 142v209h-119v-209h119zM273 144v207h-119v-207h119z" />
    <glyph glyph-name="CNS1.14468" 
 />
    <glyph glyph-name="CNS1.14469" 
 />
    <glyph glyph-name="CNS1.14470" 
 />
    <glyph glyph-name="CNS1.14471" 
 />
    <glyph glyph-name="CNS1.14472" 
d="M915 685q-4 -291 -14 -440q-4 -56 -15 -175q-4 -35 -6.5 -51.5t-14.5 -40.5t-32 -37q-22 -10 -48.5 -11t-64 4.5t-50.5 6.5l-13 67q69 -15 124 -18q1 1 6.5 2.5t8 2.5t6.5 3.5t6.5 6.5t3.5 10q23 92 29 345q5 122 5 265h-265q-51 -121 -109 -192l-60 36q129 136 155 369
l62 -19q-2 -37 -25 -134h311zM815 137l-65 -26q0 44 -11 86l-226 -51l-38 51q47 46 85 146t46 197l62 -24q-22 -160 -108 -297l160 35q-26 64 -51 98l56 24q27 -46 42 -76.5t30 -75.5t18 -87zM437 310h-141v-251l138 67v-62l-200 -103l-38 52q37 20 37 73v224h-146v59h146
v118h-59q-51 -71 -81 -97l-47 50q72 61 115.5 165.5t51.5 228.5l59 -15q5 -77 -13 -122h171v-59h-183q-6 -19 -21 -52.5t-17 -39.5h207v-59h-120v-117h141v-60z" />
    <glyph glyph-name="CNS1.14475" 
d="M965 130l-45 -43q-125 125 -187 354q-21 78 -30 142l-2 -396h123v-57h-123v-198h-62v198h-120v57h120v398q-14 -116 -63 -254t-136 -245l-48 41q65 68 118 209t71 279h-179v57h237v165h62v-165h242v-57h-191q16 -92 35.5 -165t66 -165.5t111.5 -154.5zM376 301h-128v-236
l126 75v-67l-159 -98l-37 49q8 11 8 29v248h-122v57h122v100h-71l-42 -55l-50 41q67 74 100 166t56 220l62 -24q-6 -31 -28 -116h163v-57h-179q-27 -79 -47 -118h205v-57h-107v-100h128v-57z" />
    <glyph glyph-name="CNS1.14477" 
 />
    <glyph glyph-name="CNS1.14478" 
 />
    <glyph glyph-name="CNS1.14479" 
 />
    <glyph glyph-name="CNS1.14480" 
 />
    <glyph glyph-name="CNS1.14481" 
d="M843 -67v77h-386v-80h-62v854l509 1v-852h-61zM251 120v64h-111v-64h-58v589h231v-589h-62zM843 723h-386v-654h386v654zM251 650h-111v-407h111v407zM683 512v-111h90v-241h-240v241h88v111h-126v59h126v118h63v-119h120v-58h-121zM715 347h-123v-134h123v134z" />
    <glyph glyph-name="CNS1.14483" 
 />
    <glyph glyph-name="CNS1.14484" 
 />
    <glyph glyph-name="CNS1.14485" 
 />
    <glyph glyph-name="CNS1.14486" 
 />
    <glyph glyph-name="CNS1.14487" 
 />
    <glyph glyph-name="CNS1.14488" 
 />
    <glyph glyph-name="CNS1.14489" 
 />
    <glyph glyph-name="CNS1.14490" 
d="M963 -18l-42 -51q-6 1 -37 21q-87 68 -131 167.5t-65 230.5h-5q-19 -118 -80 -218t-158 -158q-63 -37 -79 -45l-50 49q102 47 176.5 122.5t107.5 178.5q12 35 18 72h-200v60h210q11 71 13 180h-105q-33 -90 -82 -151l-56 35q108 148 103 296l60 -16q0 -13 -8 -104h89
q3 63 -1 190l61 -6q0 -32 1 -93t1 -91h180v-60h-182q-4 -109 -12 -180h236v-60h-175q18 -143 99 -268q43 -66 113 -101zM396 297h-134v-225l123 70v-62l-197 -115l-34 51q45 25 45 88v193h-137v59h137v98h-61l-15 -22.5l-12.5 -19.5t-13 -17t-20.5 -20l-47 40
q66 65 104.5 173.5t46.5 235.5l56 -15q0 -22 -3.5 -46t-7.5 -46t-5 -29h165v-59h-178q-7 -39 -41 -116h208v-59h-113v-98h134v-59z" />
    <glyph glyph-name="CNS1.14492" 
 />
    <glyph glyph-name="CNS1.14493" 
 />
    <glyph glyph-name="CNS1.14494" 
 />
    <glyph glyph-name="CNS1.14495" 
d="M759 681l-51 -27q-30 76 -105 145l43 27q72 -56 113 -145zM934 635l-1 -57h-375v-281q0 -106 -24.5 -175.5t-82.5 -145.5q-19 -25 -36 -43l-48 44q129 142 129 272v386h438zM429 635h-148q-7 -85 -33 -174l164 1l-1 -391h-185v-61h-62v289q-32 -35 -70 -64l-40 42
q158 141 169 358h-146v58h352v-58zM350 404h-120l-5 -6l1 -269h123z" />
    <glyph glyph-name="CNS1.14497" 
 />
    <glyph glyph-name="CNS1.14498" 
 />
    <glyph glyph-name="CNS1.14499" 
 />
    <glyph glyph-name="CNS1.14500" 
 />
    <glyph glyph-name="CNS1.14501" 
d="M339 744l-38 -40q-64 64 -150 97l28 39q79 -23 160 -96zM887 783l-1 -754q0 -36 -11.5 -50.5t-37.5 -20.5q-23 -5 -106 -5l-20 58l90 -3q24 0 24 33l-1 684h-428v58h491zM787 432h-184v-97l128 1v-272h-63v55h-190v-56h-62v273l125 -1v97l-182 1v57h182v82l-41.5 -6
t-50 -6.5t-43.5 -2.5l-33 49q177 10 316 77l39 -40q-70 -41 -125 -57v-96h184v-58zM358 570l-34 -37q-48 52 -104 87l31 36q50 -26 107 -86zM313 424l-36 -37q-33 45 -101 94l31 35q51 -23 106 -92zM360 314q-53 -152 -129 -250l-48 33q81 97 132 245zM163 -58h-62v762h62
v-762zM669 177v102l-191 -1v-101h191z" />
    <glyph glyph-name="CNS1.14504" 
 />
    <glyph glyph-name="CNS1.14505" 
 />
    <glyph glyph-name="CNS1.14506" 
d="M851 744q-14 -132 -68 -253q-9 1 -62 18q38 77 59 176h-201q-47 -145 -160 -250q-7 5 -27 17.5t-29 19.5q83 68 131 166t56 209l56 -18q-3 -39 -13 -85h258zM907 -68h-65v73l-343 -1v-70h-66v459q115 24 180 94l43 -47q-53 -58 -157 -90v-90h128l-1 -59l-127 -1v-137
l342 1v136h-130v59h130l1 126l-144 1v58l209 1v-513zM381 250v-1q0 -27 -18 -49t-45 -30q-11 -3 -24.5 -3.5t-23 0.5t-25.5 4t-23 4l-15 67q70 -15 86 -15q17 0 24 15q11 36 -5 101q-17 73 -91 151q53 108 90 246l-122 -1v-803l-67 -1v865h251l-1 -54q-31 -125 -81 -244
q90 -109 90 -252z" />
    <glyph glyph-name="CNS1.14508" 
 />
    <glyph glyph-name="CNS1.14509" 
 />
    <glyph glyph-name="CNS1.14510" 
d="M726 626l-48 42q81 72 116 152q9 -7 28 -18t26 -16q-15 -39 -53.5 -87.5t-68.5 -72.5zM415 613h498v-59h-147v-111q0 -29 32 -29h130v-56h-160q-28 0 -46 17.5t-18 42.5v136l-289 1v58zM593 512q-13 -39 -55 -99t-85 -89q25 1 415 1v-287h80v-59h-618v59h96l1 270
l-35 -24q1 -4 3 -10l-54 -26q-25 87 -66 148v-460h-62v409q-34 -101 -125 -197l-47 39q60 57 105.5 157.5t59.5 184.5h-150v59h157v124q-59 -13 -123 -15l-30 58q188 5 309 62l30 -59q-37 -14 -124 -35v-135h115v-59h-115v-112l34 24q34 -37 64 -103q56 37 98.5 93.5
t62.5 114.5q9 -7 33.5 -20.5t25.5 -13.5zM806 266h-65v-228h65v228zM680 266h-64v-228h64v228zM556 266h-66v-228h66v228zM554 627q-51 93 -130 150l42 34q29 -15 74 -61t64 -82z" />
    <glyph glyph-name="CNS1.14513" 
 />
    <glyph glyph-name="CNS1.14514" 
d="M959 78l-40 -55q-130 45 -215 102.5t-166 144.5v-247q0 -34 -18 -58t-57 -24h-77l-22 64q58 -6 88 -3q22 5 22 26v373h-276v59h276v98h-404v59h404v93h-276v59h276v72h64v-72h269v-152h123v-59h-123v-157h-269v-49q8 -18 44.5 -55.5t72.5 -64.5q90 52 167 131l40 -39
q-75 -70 -161 -127q48 -37 123 -71q59 -26 135 -48zM362 266l-43 -44q-44 51 -174 114l36 40q48 -15 101 -46.5t80 -63.5zM441 164q-55 -22 -188 -82.5t-134 -61.5l-51 54q122 40 373 155v-65zM743 617v93h-205v-93h205zM743 460v98h-205v-98h205z" />
    <glyph glyph-name="CNS1.14516" 
 />
    <glyph glyph-name="CNS1.14517" 
 />
    <glyph glyph-name="CNS1.14518" 
d="M965 -17l-44 -46q-37 24 -71.5 57.5t-64.5 73.5t-51 72.5t-46 75.5q-118 -193 -245 -282l-42 49q149 101 254 297q-93 197 -144 439h-36v59h391q4 -12 2 -33.5l-3 -33t-6 -33t-8 -32.5l-9 -32l-9 -32q-48 -182 -109 -301q111 -198 241 -298zM493 155l-58 -33
q-34 103 -92 211q-85 -188 -260 -338l-42 49q76 58 145.5 149.5t119.5 201.5q-62 93 -181 216l50 30q105 -105 157 -175q36 103 51 253h-319v59h383q-18 -236 -73 -374q88 -131 119 -249zM805 718h-238q55 -231 125 -363q56 128 113 363z" />
    <glyph glyph-name="CNS1.14520" 
 />
    <glyph glyph-name="CNS1.14521" 
 />
    <glyph glyph-name="CNS1.14522" 
 />
    <glyph glyph-name="CNS1.14523" 
 />
    <glyph glyph-name="CNS1.14524" 
 />
    <glyph glyph-name="CNS1.14525" 
 />
    <glyph glyph-name="CNS1.14526" 
 />
    <glyph glyph-name="CNS1.14527" 
 />
    <glyph glyph-name="CNS1.14528" 
 />
    <glyph glyph-name="CNS1.14529" 
 />
    <glyph glyph-name="CNS1.14530" 
 />
    <glyph glyph-name="CNS1.14531" 
 />
    <glyph glyph-name="CNS1.14532" 
 />
    <glyph glyph-name="CNS1.14533" 
 />
    <glyph glyph-name="CNS1.14534" 
 />
    <glyph glyph-name="CNS1.14535" 
d="M785 428h-607v59h545v100l-506 -1v57h506v96h-545v60h607v-371zM851 315q-2 -4 -11.5 -21l-12.5 -22.5l-12 -21t-13.5 -22.5l-13 -20t-15 -21.5t-15 -18.5t-16.5 -18l-51 33q61 59 113 166zM935 -3l-33 -60l-45 17q-104 40 -193.5 106t-146.5 153q-47 -105 -142 -172
t-221 -88l-59 -10l-35 57q55 8 107 23.5t104 42t93 60.5t72.5 81t43.5 102q14 63 19 108l62 -18q-14 -82 -24 -121q129 -202 398 -281zM324 326q-28 -76 -76 -138q-22 -28 -46 -50l-52 34q89 90 121 184z" />
    <glyph glyph-name="CNS1.14537" 
 />
    <glyph glyph-name="CNS1.14538" 
d="M951 353h-58v-153h-183v-200q-4 -18 -18 -34t-32 -21q-12 -4 -25 -5t-35 0t-26 1q-22 52 -24 59q10 2 34 -1.5t41.5 -0.5t25.5 19v183h-170v54h169l1 99h-189l-1 55h189v105h-151v54h15q-21 19 -36 37q107 84 153 242l48 -22q-7 -30 -28 -83l181 -1q-1 -8 0.5 -25
t0 -29.5t-9.5 -20.5q-14 -26 -48 -98h118l1 -158h57v-56zM481 450h-409v54h172v87h-137v52h138v68h-175v56h174v73h61v-73h175v-55h-174v-69h136v-53h-136v-86h175v-54zM434 9q0 -19 -15.5 -36t-34.5 -22q-5 -4 -39.5 -2.5t-39.5 1.5l-20 56l74 -3q10 -1 18 12v88h-185v-163
h-59v468h301v-399zM767 685h-140q-38 -63 -100 -119h182q34 55 58 119zM836 409v103h-126v-103h126zM835 255v98h-125v-98h125zM375 285v66h-184v-66h184zM377 157v73h-186v-73h186z" />
    <glyph glyph-name="CNS1.14541" 
 />
    <glyph glyph-name="CNS1.14542" 
 />
    <glyph glyph-name="CNS1.14543" 
 />
    <glyph glyph-name="CNS1.14544" 
 />
    <glyph glyph-name="CNS1.14545" 
 />
    <glyph glyph-name="CNS1.14546" 
 />
    <glyph glyph-name="CNS1.14547" 
 />
    <glyph glyph-name="CNS1.14548" 
 />
    <glyph glyph-name="CNS1.14549" 
 />
    <glyph glyph-name="CNS1.14550" 
d="M920 689q-20 -112 -82 -202q-10 4 -30 14l-28 14q70 89 90 201zM712 514q-9 -2 -30.5 -4t-33.5 -5q23 69 -2 166l60 7q20 -66 6 -164zM570 503l-24.5 -12.5l-31.5 -16.5q-15 89 -69 159q-1 0 -4 5l48 29q17 -19 41 -59q23 -37 40 -105zM901 -80h-66v69l-302 -1v-68h-64
v489q76 12 171 71l47 -43q-84 -57 -154 -72v-129h122v-57h-122v-132h303l-1 133l-122 -1v59h123l-1 133h-134l1 59h198zM948 784q-72 -33 -163 -53.5t-158 -27t-178 -12.5l-18 19l1 -36h-58v-137l-83 -1l-1 -65l123 1v-238h-124l1 -77l163 -1v-59h-162l-1 -177h-59v178
l-173 -1v59h172l1 78h-123v238l123 -1v66l-85 -1l1 138h-80v59h80v88h61l-1 -88h104v88h63v-88h45q-1 4 -5 10t-5 9q6 1 19.5 0t20.5 1h9q258 0 451 79zM312 592v81h-105v-81h105zM354 292v121h-64l1 -121h63zM231 291v122h-64v-122h64z" />
    <glyph glyph-name="CNS1.14552" 
 />
    <glyph glyph-name="CNS1.14553" 
 />
    <glyph glyph-name="CNS1.14554" 
 />
    <glyph glyph-name="CNS1.14555" 
 />
    <glyph glyph-name="CNS1.14556" 
d="M931 -17l-881 1v60l312 1v162l-273 1l1 59h272v145h-240l-1 59h240v136l-261 1v58h262v158h65v-779l127 -1l-1 778h65v-156h267v-59h-266v-136h243v-59h-244l1 -145l271 1v-61l-271 1v-163l312 -1v-61z" />
    <glyph glyph-name="CNS1.14558" 
 />
    <glyph glyph-name="CNS1.14559" 
d="M895 16q-3 -38 -33 -56q-14 -8 -35.5 -12t-35 -4t-40 1.5t-30.5 1.5l-21 65q10 0 46 -3t56 -2q20 4 26 17l4 15v610l-401 -1l-1 -714l-61 -1l-1 775h148q69 55 99 165q13 -6 58 -37q-32 -84 -78 -128h299zM753 190l-245 -1v334h245v-333zM298 139h-63v63l-89 -1v-63h-64
l1 598l214 -1zM691 463h-120v-215h119zM235 261v416h-89l-1 -416h90z" />
    <glyph glyph-name="CNS1.14563" 
 />
    <glyph glyph-name="CNS1.14564" 
 />
    <glyph glyph-name="CNS1.14565" 
 />
    <glyph glyph-name="CNS1.14566" 
 />
    <glyph glyph-name="CNS1.14567" 
 />
    <glyph glyph-name="CNS1.14568" 
 />
    <glyph glyph-name="CNS1.14569" 
 />
    <glyph glyph-name="CNS1.14570" 
 />
    <glyph glyph-name="CNS1.14571" 
 />
    <glyph glyph-name="CNS1.14572" 
 />
    <glyph glyph-name="CNS1.14573" 
d="M691 717q-35 56 -101 90l43 37q83 -45 113 -98q-2 -1 -12.5 -10.5t-24.5 -18.5h223v-58h-215q-47 -108 -129 -185h17l225 21q-38 38 -71 53l50 40q91 -60 135 -168l-52 -36q-14 34 -31 60q-40 -4 -122.5 -11t-133 -13t-89.5 -15l-36 56q48 26 95.5 86t66.5 112h-145v58
h194zM344 722v-69h105v-227h-364v227h103v69h-128v59h421v-59h-137zM289 722h-47v-69h47v69zM391 602h-47v-125h47v125zM289 602h-47v-125h47v125zM188 602h-45v-125h45v125zM940 11q-5 -22 -22.5 -42t-34.5 -22q-66 -8 -89 19q-18 20 -18 57v337h59v-324q0 -18 6.5 -27.5
t19.5 -8.5q19 1 24 34q0 2 0.5 5t1.5 5q7 43 10 95l59 -21q-4 -58 -16 -107zM655 -50v410h59v-410h-59zM447 -65l-42 46q126 54 126 208v167h60q0 -23 0.5 -86.5t0.5 -86.5q0 -79 -35.5 -147t-109.5 -101zM102 335v50h314v-50h-314zM426 42q-14 30 -44.5 63.5t-56.5 53.5
l40 34q25 -15 59 -51t47 -65zM297 223v-198q0 -17 -13 -34t-28 -22q-23 -6 -50 -8q-8 0 -24 0.5t-26 0.5l-15 60q6 -1 25.5 -3.5t24.5 -3.5q44 -8 44 41v167h-185v59h417v-59h-170zM83 24l-38 38q72 43 116 126l45 -33q-43 -88 -123 -131z" />
    <glyph glyph-name="CNS1.14575" 
d="M901 769q-13 -80 -54 -137l-56 24q46 64 59 132zM911 537l-39 -48q-76 75 -154 96q-20 -32 -63.5 -63.5t-83.5 -48.5l-48 48q53 14 107 59.5t63 94.5q1 8 4 18.5t4 15.5q10 68 4 130l60 -18q5 -106 -23 -186q91 -24 169 -98zM649 765q-9 -68 -52 -133l-55 23
q45 59 56 130zM900 428q-1 -14 -18 -71q-10 -32 -39 -76l-56 24q46 61 63 143zM885 139l-48 -40q-54 73 -113 105l-13 3q-15 -25 -53.5 -61t-69.5 -55l-46 45q53 30 95.5 79.5t51.5 100.5q13 74 13 185l57 -8q0 -8 -0.5 -40t-1 -43t-2 -37.5t-4 -42t-7 -36t-10.5 -38.5
q59 -28 117 -80zM653 437q-11 -85 -58 -151l-52 23q39 49 59 147zM956 90q-10 -89 -44 -126q-16 -17 -46 -19.5t-53 2.5q-194 17 -273 85q-65 56 -87.5 137.5t-22.5 187.5v369l-251 -1l-1 -122q39 19 47 26q53 -79 88 -160q17 71 32 187q11 -2 33 -9.5l25 -8.5
q-15 -132 -50 -254q57 -111 86 -221q-9 -4 -25.5 -21t-26.5 -21q-27 108 -62 175q-57 -140 -93 -197q-9 7 -54 36q75 118 110 246q-68 153 -109 212l1 -208q0 -121 -2 -160q-8 -143 -101 -302l-57 36q100 145 100 387v440l370 1v-380q0 -66 1.5 -99.5t12 -86t32.5 -89.5
q29 -50 88 -79.5t117.5 -38t124.5 -6.5q9 3 14 11t7 15t4 19l3 18l3 42z" />
    <glyph glyph-name="CNS1.14577" 
 />
    <glyph glyph-name="CNS1.14578" 
 />
    <glyph glyph-name="CNS1.14579" 
 />
    <glyph glyph-name="CNS1.14580" 
 />
    <glyph glyph-name="CNS1.14581" 
 />
    <glyph glyph-name="CNS1.14582" 
 />
    <glyph glyph-name="CNS1.14583" 
 />
    <glyph glyph-name="CNS1.14584" 
 />
    <glyph glyph-name="CNS1.14585" 
 />
    <glyph glyph-name="CNS1.14586" 
 />
    <glyph glyph-name="CNS1.14587" 
 />
    <glyph glyph-name="CNS1.14588" 
 />
    <glyph glyph-name="CNS1.14589" 
 />
    <glyph glyph-name="CNS1.14590" 
 />
    <glyph glyph-name="CNS1.14591" 
 />
    <glyph glyph-name="CNS1.14592" 
 />
    <glyph glyph-name="CNS1.14593" 
 />
    <glyph glyph-name="CNS1.14594" 
d="M972 511q-6 -10 -23 -26l-22 -21q-63 36 -141 112l-2 -56h-223v56q-44 -46 -139 -112l-46 46q83 53 156.5 130t114.5 158l16 42q12 -3 30 -15t23 -14l-12 -31q52 -112 181 -209q57 -43 87 -60zM834 387q-9 -21 -24 -43t-41 -54t-31 -39q-15 9 -48 34l26.5 29.5t33.5 39.5
t19 32h-285v60h350v-59zM953 56l-17.5 -10.5l-19.5 -12t-18 -9.5q-35 115 -107 182l47 33q74 -72 115 -183zM749 126l-53 -31q-17 90 -88 166l48 27q52 -53 93 -162zM828 89l-6.5 -26.5t-7.5 -29t-9.5 -26.5t-14 -24.5t-20.5 -16t-29 -8.5q-101 -9 -142 7q-11 4 -19.5 10.5
t-13.5 16.5t-8 17.5t-4 21l-1.5 20t0 21.5t0.5 18v113l62 1l1 -163q0 -1 1.5 -5t2 -5.5t2 -4.5t4.5 -4.5t7 -2.5q13 -4 27 -5t36.5 0t29.5 1q4 0 7.5 1t6.5 3.5t5 4.5t4.5 6.5t3.5 6t4 7t3 6.5q16 64 16 83q7 -2 24 -11t25 -12q6 -1 6.5 -4t-1.5 -8.5t-2 -8.5zM510 197
q-6 -47 -44 -122q-21 -43 -48 -68l-46 25q-3 -16 -7 -25q-7 -25 -29 -46.5t-47 -24.5q-38 -4 -110 15l-13 63l90 -22q17 -4 36 11q20 27 29 90q8 54 18 253h-255v49q18 115 36 288l60 -7q-19 -171 -35 -271h115q30 271 33 325h-249v58h310q-10 -177 -34 -383h83
q-6 -238 -27 -355q57 66 78 174zM300 184l-238 -72l-25 61l263 68v-57zM780 579q-59 60 -105 141q-51 -78 -108 -141h213z" />
    <glyph glyph-name="CNS1.14596" 
d="M917 622q-6 -14 -21.5 -25.5t-34.5 -11.5h-111q-64 0 -64 62v187h59v-79q31 6 73 23t64 36l36 -47q-31 -22 -82 -41.5t-92 -26.5v-35q0 -25 31 -25h68q16 0 23.5 5.5t9.5 21.5l5 43l55 -22q-4 -25 -19 -65zM610 567h-61v43l-147 -34l-23 55l170 32v47h-161v54h161v70h61
v-267zM594 39q-71 -63 -216 -111l-39 47q130 33 211 104zM368 87v58h158v49h-116v58h116v51h-99v244h444v-244h-94v-51h116v-58h-116v-49h170v-58l-396 -1zM902 -66q-69 62 -214 86l38 44q122 -19 214 -84zM342 657l-1 -59q-27 -88 -87 -177l1 -30l39 33q31 -29 50 -54.5
t37 -62.5q-9 -6 -28 -16.5t-28 -16.5q-16 45 -25.5 59.5t-45.5 50.5l1 -445h-63v402q-25 -42 -103 -111l-46 43q156 123 235 325h-220v59h284zM198 668q-29 80 -90 133l49 35q64 -61 98 -137zM809 493h-130v-48h130v48zM809 402h-130v-49h130v49zM620 493h-129v-48h129v48z
M620 402h-129v-49h129v49zM716 303h-129v-51h129v51zM716 194h-129v-49h129v49z" />
    <glyph glyph-name="CNS1.14599" 
 />
    <glyph glyph-name="CNS1.14600" 
 />
    <glyph glyph-name="CNS1.14601" 
 />
    <glyph glyph-name="CNS1.14602" 
 />
    <glyph glyph-name="CNS1.14603" 
d="M855 815q-138 -120 -278 -152q-24 36 -37 53q144 26 276 142zM892 706q-145 -132 -292 -162q-5 7 -16.5 26t-18.5 28q143 22 287 151zM938 600q-148 -145 -362 -181l-41 55q185 19 316 128l48 40zM564 529h-139q63 -44 98 -99q-6 -6 -21 -17.5t-22 -17.5q-7 7 -18 20.5
t-18 20.5q-222 -20 -330 -39l-36 54q46 24 89 78h-128v50h79l1 226h410v-55h-350v-26h323v-41h-322q-2 -6 -1 -15.5t0 -14.5h324l-1 -42h-323l1 -32h384v-50zM897 157q0 -6 -1 -23t-1.5 -24.5t-2 -22t-3.5 -23.5t-5.5 -21t-7.5 -22q-6 -11 -15 -19t-21 -11.5t-22 -5.5
t-26 -1t-24 2t-25.5 3.5t-22.5 3.5q-7 30 -19 63l27 -6l27 -6t28 -4t29 1q9 6 12.5 15.5t4.5 23t3 20.5h-190l-1 -159h-61v159l-186 1q-86 -146 -324 -165l-45 62q143 -2 250 63q33 24 43 40q-33 1 -100.5 0t-100.5 -1q10 35 44 164h196v46l-256 1v57h255l-1 41h62v-41h163
v43l62 -1l-1 -42h229l-1 -161h-228l1 -49zM807 264v47h-165v-47h165zM580 264v47l-161 -1v-46h161zM384 487q-6 5 -19 12t-16 9l25 21h-129q-32 -42 -56 -58zM580 158l-1 48l-160 1q0 -8 -1 -16t-2.5 -18t-2.5 -16zM356 206h-149q-4 -16 -8 -48l150 -1q6 31 7 49z" />
    <glyph glyph-name="CNS1.14605" 
 />
    <glyph glyph-name="CNS1.14606" 
d="M520 617l-47 -51q-25 55 -75.5 101.5t-110.5 76.5l36 48q64 -28 143 -107q29 -30 54 -68zM942 211l-229 -13l-1 -266h-62l-1 260l-586 -36q-14 54 -16 60l602 39l1 584h62v-578l224 15zM434 366l-45 -49q-52 109 -198 181l35 47q140 -70 208 -179z" />
    <glyph glyph-name="CNS1.14608" 
 />
    <glyph glyph-name="CNS1.14609" 
 />
    <glyph glyph-name="CNS1.14610" 
 />
    <glyph glyph-name="CNS1.14611" 
d="M746 663l-47 -49q-54 83 -149 140l41 41q93 -50 155 -132zM943 324l-101 -24v-233h-62v218l-221 -53l-16 57l237 56v488h62v-474l90 21zM741 439l-49 -44q-39 79 -139 145l40 42q43 -24 83.5 -62.5t64.5 -80.5zM962 145q-6 -33 -11.5 -54.5t-18 -53t-33 -48t-47.5 -16.5
h-476q-30 0 -55.5 24.5t-25.5 53.5v224h-2q-28 -112 -70 -186q-60 -106 -147 -165l-49 45q79 50 126 122.5t83 180.5q11 34 14 67h-147v388h108q27 25 53.5 61t36.5 64l56 -37q-24 -46 -70 -88h220v-388h-196q-1 -8 -11 -48h56v-218q0 -18 11.5 -29t26.5 -11h445q33 0 51 46
q15 54 15 90zM634 85l-57 -22l-12 40q-108 -13 -165 -34l-39 46q79 101 89 210l57 -27q-16 -100 -82 -166l2 -2q17 5 55.5 12.5t55.5 14.5q-13 25 -31 41l49 23q39 -39 78 -136zM445 569v100h-113q-3 -55 -3 -100h116zM273 669h-108v-100h106q0 12 1 47.5t1 52.5zM445 397
v116h-119q-2 -24 -5 -65t-4 -51h128zM268 513h-103v-116h93q4 29 10 116z" />
    <glyph glyph-name="CNS1.14613" 
 />
    <glyph glyph-name="CNS1.14614" 
 />
    <glyph glyph-name="CNS1.14615" 
 />
    <glyph glyph-name="CNS1.14616" 
 />
    <glyph glyph-name="CNS1.14617" 
d="M915 573h-206v-222h173v-427h-64v72h-224v-72h-64v427h120v481h59v-200h206v-59zM473 161h-350v349q-17 -33 -48 -60l-49 47q145 135 196 351l54 -27q-9 -37 -29 -98h168v-55q-27 -54 -57 -102h115v-405zM486 59l-384 -88l-29 57q68 14 209.5 46.5t203.5 45.5v-61z
M818 55v237h-224v-237h224zM346 664h-124q-22 -52 -56 -98h126q36 51 54 98zM412 395v112h-85v-112h85zM269 395v112h-85v-112h85zM412 220v117h-85v-117h85zM269 220v117h-85v-117h85z" />
    <glyph glyph-name="CNS1.14621" 
 />
    <glyph glyph-name="CNS1.14622" 
 />
    <glyph glyph-name="CNS1.14623" 
 />
    <glyph glyph-name="CNS1.14624" 
 />
    <glyph glyph-name="CNS1.14625" 
 />
    <glyph glyph-name="CNS1.14626" 
 />
    <glyph glyph-name="CNS1.14627" 
 />
    <glyph glyph-name="CNS1.14628" 
 />
    <glyph glyph-name="CNS1.14629" 
 />
    <glyph glyph-name="CNS1.14630" 
 />
    <glyph glyph-name="CNS1.14631" 
 />
    <glyph glyph-name="CNS1.14632" 
 />
    <glyph glyph-name="CNS1.14633" 
d="M692 541l-47 -30q-35 71 -93 115l41 27q67 -54 99 -112zM902 371q0 -167 -30 -331q-10 -51 -31.5 -75t-60.5 -24q-40 0 -109 13l-14 61l100 -19q18 -3 30.5 10.5t17.5 30.5t11 46q24 117 24 231h-388v427h110q35 62 45 104l53 -17q-8 -28 -38 -87h221q1 -111 -20 -253
q-7 -40 -41 -58q-13 -7 -32 -9.5t-30 -2t-37.5 4t-30.5 3.5l-15 58q11 -2 35.5 -7.5t35.5 -6.5t36 1q14 8 18 26q19 80 19 186h-266l-1 -311zM808 156h-372v57h372v-57zM455 68l-62 -32q-31 113 -101 228q-96 -204 -208 -298l-50 41q72 70 119 140.5t98 179.5
q-91 134 -174 227l45 35q69 -69 157 -189q38 131 52 264h-267v60l333 -1q0 -61 -4 -93.5t-21 -115.5q-18 -93 -51 -179q23 -34 70 -125t64 -142z" />
    <glyph glyph-name="CNS1.14635" 
 />
    <glyph glyph-name="CNS1.14636" 
 />
    <glyph glyph-name="CNS1.14637" 
 />
    <glyph glyph-name="CNS1.14638" 
 />
    <glyph glyph-name="CNS1.14639" 
 />
    <glyph glyph-name="CNS1.14640" 
 />
    <glyph glyph-name="CNS1.14641" 
 />
    <glyph glyph-name="CNS1.14642" 
 />
    <glyph glyph-name="CNS1.14643" 
 />
    <glyph glyph-name="CNS1.14644" 
 />
    <glyph glyph-name="CNS1.14645" 
 />
    <glyph glyph-name="CNS1.14646" 
d="M920 789l-1 -59h-378q-16 -79 -35 -121h359v-682h-63l1 69h-623l-1 -78l-62 1v690h319q25 41 40 121h-421v59h865zM803 56v494h-152v-495zM589 436v113h-190v-113h190zM589 255v121l-190 1v-122h190zM589 55v141h-190l1 -141h189zM337 55v494l-157 1l-1 -495h158z" />
    <glyph glyph-name="CNS1.14650" 
 />
    <glyph glyph-name="CNS1.14651" 
 />
    <glyph glyph-name="CNS1.14652" 
 />
    <glyph glyph-name="CNS1.14653" 
d="M947 135q-20 -71 -45 -123q-26 -40 -70 -45l-209 -1q-29 0 -54.5 24t-21.5 54v409h62l1 -180q97 11 172 51q46 25 75 50l39 -45q-100 -84 -287 -118v-149q0 -14 12 -25.5t26 -9.5h168q19 4 32 18t17.5 25t11 37.5t8.5 32.5l4 25zM884 512h-441v-248q0 -196 -108 -349
l-52 46q25 33 48 86q46 113 46 253v477h506zM322 808q-33 -136 -73 -232v-656h-65v536q-53 -77 -80 -106l-61 32q85 85 135.5 194.5t86.5 251.5zM819 570v147l-376 1v-147z" />
    <glyph glyph-name="CNS1.14656" 
 />
    <glyph glyph-name="CNS1.14657" 
 />
    <glyph glyph-name="CNS1.14658" 
 />
    <glyph glyph-name="CNS1.14659" 
 />
    <glyph glyph-name="CNS1.14660" 
 />
    <glyph glyph-name="CNS1.14661" 
d="M860 776q-84 -51 -189 -63l-27 50q101 6 181 53zM953 642q-8 -44 -32 -82t-67 -34l-233 -1q-33 0 -57.5 16.5t-24.5 46.5v246h58v-225q-2 -14 4.5 -21.5t28.5 -5.5h214q12 0 21.5 5.5t16 17.5t10 20t8 24.5t5.5 20.5zM862 632l-30 -45q-8 3 -22.5 12t-20.5 12
q-90 44 -167 38l31 49q107 -3 209 -66zM316 748l-31 -42l-21 12l-21 12q-55 30 -129 36l28 44q101 -13 174 -62zM461 834q-1 -19 0 -62.5t0 -71t-12.5 -61t-35.5 -54.5q-35 -32 -110 -57q-47 -17 -182 -34l-35 57q173 11 260 57q58 30 58 116v110h57zM348 656l-242 -59
l-32 50q4 1 92 18q31 6 91.5 22t90.5 22v-53zM963 -26l-36 -51q-107 31 -200 105q-111 -75 -190 -96l-33 -9l-40 53q130 22 223 93q-59 76 -88 154l-41 1l1 55h143l1 85l-163 -1l-1 49h-196v-53h177l-1 -48h-408v48h173v54h-212v52h212v48l59 1v-49h217l-1 -47h144v83h59
l1 -83h174v-55h-175v-85l126 1v-51q-36 -89 -118 -163q74 -62 193 -91zM555 12l-480 -56l-30 59q76 0 198 15q-23 43 -63 72l43 18v2h-93v149h369v-149h-96v-2l31 -16q-3 -10 -8.5 -18.5t-15.5 -21t-13 -16.5l158 16v-52zM826 223h-170q29 -67 73 -117h2q67 61 95 117z
M440 170v51h-251v-50zM378 122h-141q26 -26 57 -86l37 4q31 34 47 82z" />
    <glyph glyph-name="CNS1.14663" 
 />
    <glyph glyph-name="CNS1.14664" 
d="M918 739q-8 -195 -25 -277q-13 -33 -50 -41q-35 -4 -52 -1l-20 55q63 -12 67 16q9 28 16 125l5 67h-45q-6 -142 -94 -231l-48 35q83 72 85 196h-34q-31 -75 -61 -116l-58 25q40 45 60.5 100t33.5 131l3 17l53 -18q-4 -39 -17 -83h181zM632 517l-49 -28q-20 44 -59 79
v-161h-56v115q-30 -54 -111 -112l-39 43q27 17 44 32q84 75 102 141h-116v57h120l-1 54q-49 -9 -98 -11l-40 59q136 -7 260 47l34 -45q-18 -9 -54 -21.5t-45 -16.5v-66h96v-56h-96v-37l30 17q35 -22 78 -90zM980 282l-44 -55q-167 48 -306 186q-117 -117 -289 -185l-35 41
l-1 -114h-56v59l-90 -1v-58h-54v580l201 -1v-448q193 60 315 206l57 -22l-12 -16q134 -127 314 -172zM845 238q-31 -42 -98 -81l-52 40q40 16 63 37q7 4 14 10.5t15 15t12 11.5zM940 27l-40 -49q-100 89 -217 117l36 47q38 -8 80.5 -28t70 -38t70.5 -49zM669 358l-1 -354
q0 -62 -62 -63l-75 -1l-17 53q39 -4 67 -2q26 -1 26 25l1 341zM573 184l-51 -40q-23 54 -102 95l46 35q67 -35 107 -90zM580 84l-226 -88l-42 51q84 24 268 98v-61zM249 275v398l-90 1l1 -399h89z" />
    <glyph glyph-name="CNS1.14666" 
 />
    <glyph glyph-name="CNS1.14667" 
 />
    <glyph glyph-name="CNS1.14668" 
 />
    <glyph glyph-name="CNS1.14669" 
 />
    <glyph glyph-name="CNS1.14670" 
 />
    <glyph glyph-name="CNS1.14671" 
 />
    <glyph glyph-name="CNS1.14672" 
 />
    <glyph glyph-name="CNS1.14673" 
 />
    <glyph glyph-name="CNS1.14674" 
 />
    <glyph glyph-name="CNS1.14675" 
 />
    <glyph glyph-name="CNS1.14676" 
 />
    <glyph glyph-name="CNS1.14677" 
 />
    <glyph glyph-name="CNS1.14678" 
 />
    <glyph glyph-name="CNS1.14679" 
 />
    <glyph glyph-name="CNS1.14680" 
 />
    </font>
</defs>
</svg>
